<svg id="svg" version="1.1" xmlns="http://www.w3.org/2000/svg" xmlns:xlink="http://www.w3.org/1999/xlink" width="400" height="489.1304347826087" viewBox="0, 0, 400,489.1304347826087"><g id="svgg"><path id="path0" d="M194.200 106.414 C 191.340 106.576,188.422 106.729,187.716 106.754 C 186.995 106.780,186.104 107.151,185.687 107.599 C 185.122 108.205,184.201 108.461,181.879 108.657 C 179.320 108.873,178.720 109.062,178.235 109.803 C 177.815 110.443,177.090 110.765,175.627 110.959 C 174.270 111.139,173.600 111.415,173.600 111.795 C 173.600 112.321,171.397 113.183,170.000 113.205 C 169.670 113.210,168.976 113.661,168.458 114.207 C 167.940 114.753,167.080 115.200,166.548 115.200 C 165.894 115.200,165.462 115.512,165.215 116.161 C 164.942 116.879,164.434 117.191,163.200 117.400 C 161.966 117.609,161.458 117.921,161.185 118.639 C 160.963 119.222,160.497 119.600,160.000 119.600 C 159.494 119.600,159.035 119.982,158.800 120.600 C 158.560 121.232,158.108 121.600,157.572 121.600 C 157.051 121.600,156.642 121.920,156.508 122.431 C 156.388 122.888,155.848 123.430,155.307 123.636 C 154.765 123.841,154.229 124.367,154.115 124.805 C 154.000 125.242,153.585 125.600,153.192 125.600 C 152.755 125.600,152.312 126.076,152.049 126.830 C 151.814 127.507,151.435 127.945,151.207 127.804 C 150.685 127.481,149.600 128.539,149.600 129.371 C 149.600 129.736,149.260 130.000,148.790 130.000 C 148.210 130.000,147.912 130.341,147.740 131.200 C 147.579 132.003,147.260 132.400,146.777 132.400 C 146.285 132.400,146.013 132.752,145.927 133.500 C 145.837 134.283,145.544 134.636,144.912 134.726 C 144.083 134.844,143.210 136.670,143.202 138.300 C 143.201 138.575,142.840 138.800,142.400 138.800 C 141.878 138.800,141.600 139.067,141.600 139.567 C 141.600 140.838,141.155 141.600,140.412 141.600 C 139.882 141.600,139.648 142.042,139.463 143.391 C 139.209 145.246,138.532 146.785,137.747 147.294 C 137.498 147.455,137.172 148.562,137.023 149.753 C 136.814 151.428,136.577 151.965,135.976 152.122 C 135.352 152.285,135.200 152.680,135.200 154.143 C 135.200 156.865,134.387 160.133,133.567 160.707 C 132.892 161.181,132.849 162.050,132.922 173.562 L 133.000 185.910 133.923 186.658 C 134.696 187.283,134.885 187.912,135.081 190.503 C 135.210 192.206,135.467 193.600,135.652 193.600 C 136.112 193.600,137.200 196.284,137.200 197.418 C 137.200 197.924,137.644 198.866,138.186 199.510 C 138.728 200.155,139.289 201.413,139.431 202.306 C 139.604 203.383,139.931 203.993,140.402 204.116 C 140.870 204.239,141.207 204.858,141.387 205.925 C 141.570 207.006,141.985 207.761,142.631 208.183 C 143.164 208.533,143.600 209.145,143.600 209.545 C 143.600 209.945,144.033 210.469,144.563 210.710 C 145.167 210.986,145.632 211.635,145.812 212.456 C 145.970 213.175,146.516 214.091,147.026 214.492 C 147.536 214.893,148.059 215.557,148.190 215.967 C 148.320 216.378,148.794 216.810,149.243 216.927 C 149.692 217.045,150.155 217.508,150.273 217.957 C 150.390 218.406,150.838 218.885,151.268 219.021 C 151.697 219.158,152.240 219.689,152.473 220.201 C 152.707 220.713,153.249 221.224,153.678 221.336 C 154.108 221.449,154.557 221.914,154.676 222.370 C 154.796 222.827,155.075 223.200,155.298 223.200 C 155.521 223.200,156.400 223.830,157.253 224.600 C 158.105 225.370,159.068 226.000,159.392 226.000 C 159.716 226.000,160.276 226.450,160.637 227.000 C 160.997 227.550,161.600 228.000,161.976 228.000 C 162.353 228.000,163.070 228.436,163.570 228.968 C 164.070 229.500,165.046 230.167,165.740 230.449 C 166.433 230.732,167.180 231.171,167.400 231.425 C 167.620 231.680,168.671 232.121,169.736 232.406 C 170.801 232.691,171.765 233.164,171.878 233.458 C 171.990 233.751,172.829 234.189,173.741 234.431 C 174.654 234.673,175.760 235.192,176.200 235.583 C 176.645 235.979,177.954 236.401,179.151 236.535 C 180.333 236.667,181.683 237.023,182.151 237.327 C 183.357 238.113,186.405 238.742,195.965 240.182 C 200.611 240.882,214.767 239.009,217.400 237.346 C 217.840 237.068,219.010 236.720,220.000 236.573 C 220.990 236.426,222.520 235.903,223.400 235.410 C 224.280 234.917,225.526 234.387,226.168 234.232 C 226.811 234.077,227.765 233.614,228.287 233.203 C 228.810 232.792,229.798 232.332,230.483 232.182 C 231.830 231.886,235.757 229.541,236.916 228.341 C 237.309 227.934,237.882 227.600,238.189 227.600 C 238.495 227.600,238.857 227.251,238.992 226.825 C 239.127 226.398,239.837 225.852,240.568 225.611 C 242.393 225.008,250.985 216.495,253.195 213.100 C 254.161 211.615,255.086 210.400,255.249 210.400 C 255.412 210.400,255.661 210.037,255.802 209.593 C 255.943 209.149,256.585 208.208,257.229 207.503 C 257.873 206.798,258.400 205.840,258.400 205.373 C 258.400 204.906,258.739 204.217,259.154 203.842 C 259.568 203.467,260.132 202.359,260.406 201.380 C 260.680 200.401,261.033 199.600,261.191 199.600 C 261.568 199.600,262.689 196.950,263.011 195.296 C 263.151 194.579,263.510 193.499,263.810 192.896 C 264.109 192.293,264.539 190.649,264.764 189.242 C 264.990 187.835,265.432 185.855,265.747 184.842 C 267.382 179.588,267.397 166.317,265.774 161.400 C 265.483 160.520,265.129 158.810,264.986 157.600 C 264.843 156.390,264.360 154.590,263.913 153.600 C 263.465 152.610,263.009 151.080,262.898 150.200 C 262.788 149.320,262.383 148.240,261.998 147.800 C 261.613 147.360,261.070 146.280,260.790 145.400 C 260.510 144.520,259.858 143.173,259.341 142.407 C 258.823 141.641,258.400 140.718,258.400 140.356 C 258.400 139.994,258.116 139.462,257.769 139.174 C 257.422 138.886,256.699 137.784,256.162 136.725 C 255.626 135.666,255.022 134.800,254.820 134.800 C 254.619 134.800,254.326 134.395,254.170 133.900 C 254.013 133.405,253.540 132.757,253.117 132.460 C 252.695 132.162,252.185 131.487,251.985 130.960 C 251.784 130.432,251.374 130.000,251.074 130.000 C 250.774 130.000,250.323 129.550,250.073 129.000 C 249.822 128.450,249.339 128.000,248.999 128.000 C 248.659 128.000,248.215 127.565,248.013 127.034 C 247.811 126.503,247.303 125.960,246.884 125.827 C 246.464 125.693,245.918 125.138,245.669 124.592 C 245.421 124.047,244.955 123.600,244.636 123.600 C 244.316 123.600,243.940 123.240,243.800 122.800 C 243.660 122.360,243.377 122.000,243.169 122.000 C 242.962 122.000,242.228 121.460,241.537 120.800 C 240.846 120.140,240.032 119.600,239.728 119.600 C 239.424 119.600,239.068 119.322,238.938 118.981 C 238.807 118.641,237.845 117.930,236.800 117.400 C 235.755 116.870,234.793 116.159,234.662 115.819 C 234.532 115.478,234.137 115.200,233.786 115.200 C 233.434 115.200,232.557 114.750,231.836 114.200 C 231.114 113.650,230.218 113.200,229.842 113.200 C 229.140 113.200,226.756 112.102,226.400 111.615 C 226.290 111.464,225.300 111.104,224.200 110.814 C 223.100 110.525,221.977 110.011,221.704 109.673 C 221.409 109.307,220.130 108.928,218.553 108.738 C 217.092 108.562,215.320 108.078,214.614 107.661 C 213.597 107.061,212.169 106.848,207.765 106.637 C 204.704 106.491,201.570 106.314,200.800 106.245 C 200.030 106.176,197.060 106.252,194.200 106.414 M158.528 276.021 C 151.283 276.230,150.816 276.290,150.128 277.111 C 149.510 277.849,148.827 278.019,145.600 278.238 C 142.575 278.444,141.678 278.649,141.200 279.243 C 140.822 279.713,139.859 280.076,138.600 280.221 C 135.373 280.593,134.906 280.751,134.701 281.537 C 134.557 282.086,133.988 282.352,132.540 282.544 C 131.323 282.705,130.316 283.106,129.896 283.596 C 129.523 284.031,128.470 284.507,127.556 284.653 C 126.503 284.822,125.831 285.161,125.721 285.580 C 125.624 285.950,124.773 286.469,123.788 286.760 C 122.764 287.063,121.933 287.580,121.801 287.998 C 121.664 288.428,121.008 288.822,120.164 288.980 C 119.390 289.126,118.386 289.670,117.934 290.190 C 117.482 290.710,116.682 291.243,116.156 291.375 C 115.578 291.520,115.200 291.908,115.200 292.358 C 115.200 292.862,114.816 293.177,114.000 293.340 C 113.195 293.501,112.800 293.819,112.800 294.307 C 112.800 294.826,112.306 295.166,111.074 295.496 C 109.865 295.819,109.208 296.263,108.882 296.979 C 108.615 297.566,108.085 298.000,107.636 298.000 C 107.131 298.000,106.811 298.318,106.728 298.900 C 106.646 299.478,106.278 299.846,105.700 299.928 C 105.163 300.004,104.800 300.335,104.800 300.748 C 104.800 301.644,104.032 302.400,103.120 302.400 C 102.703 302.400,102.397 302.695,102.394 303.100 C 102.390 303.485,101.850 304.409,101.194 305.154 C 100.537 305.899,100.000 306.848,100.000 307.264 C 100.000 307.696,99.584 308.178,99.031 308.388 C 98.469 308.602,98.006 309.145,97.931 309.678 C 97.846 310.278,97.486 310.645,96.900 310.728 C 96.256 310.819,96.000 311.125,96.000 311.804 C 96.000 312.326,95.820 312.864,95.600 313.000 C 95.380 313.136,95.200 313.597,95.200 314.024 C 95.200 314.453,94.927 314.800,94.590 314.800 C 94.234 314.800,93.881 315.293,93.743 315.985 C 93.613 316.636,93.094 317.439,92.591 317.769 C 92.002 318.155,91.578 318.945,91.403 319.984 C 91.195 321.213,90.947 321.600,90.365 321.600 C 89.845 321.600,89.600 321.880,89.600 322.476 C 89.600 324.719,88.629 328.000,87.966 328.000 C 87.451 328.000,87.229 328.508,87.022 330.160 C 86.822 331.762,86.567 332.368,86.031 332.508 C 85.421 332.667,85.266 333.327,85.020 336.795 C 84.772 340.287,84.621 340.922,83.997 341.085 C 83.383 341.245,83.228 341.834,83.034 344.738 C 82.269 356.166,82.083 357.722,81.441 358.081 C 80.654 358.521,80.606 359.741,81.352 360.360 C 81.911 360.824,82.162 361.715,82.802 365.493 C 82.998 366.656,83.528 367.985,83.993 368.485 C 84.454 368.980,84.930 369.777,85.050 370.257 C 85.171 370.738,85.682 371.234,86.187 371.361 C 86.692 371.488,87.191 371.923,87.297 372.328 C 87.420 372.799,88.163 373.254,89.356 373.588 C 90.382 373.875,91.367 374.370,91.544 374.687 C 92.202 375.862,101.564 375.971,200.200 375.961 C 302.968 375.949,306.449 375.903,308.324 374.523 C 308.916 374.088,309.850 373.612,310.400 373.466 C 311.852 373.080,314.715 370.288,315.033 368.949 C 315.182 368.317,315.661 367.408,316.096 366.928 C 316.841 366.107,317.699 361.872,317.663 359.200 C 317.580 353.118,316.721 344.538,316.042 343.002 C 315.617 342.042,315.141 340.052,314.983 338.581 C 314.826 337.110,314.344 334.982,313.914 333.853 C 313.483 332.724,312.992 331.260,312.822 330.600 C 312.652 329.940,312.145 328.770,311.695 328.000 C 311.245 327.230,310.746 325.970,310.585 325.200 C 310.424 324.430,309.867 323.173,309.346 322.407 C 308.826 321.641,308.400 320.707,308.400 320.331 C 308.400 319.955,308.200 319.523,307.955 319.372 C 307.710 319.221,307.143 318.265,306.694 317.248 C 306.246 316.232,305.561 315.175,305.171 314.900 C 304.782 314.624,304.350 313.882,304.211 313.250 C 304.072 312.618,303.518 311.686,302.979 311.181 C 302.441 310.675,302.000 310.026,302.000 309.739 C 302.000 309.453,301.567 308.935,301.038 308.588 C 300.509 308.242,299.966 307.517,299.830 306.979 C 299.695 306.441,299.410 306.000,299.197 306.000 C 298.984 306.000,298.352 305.274,297.791 304.386 C 297.231 303.499,296.419 302.419,295.986 301.986 C 295.554 301.554,295.200 301.032,295.200 300.827 C 295.200 300.622,294.830 300.336,294.377 300.193 C 293.924 300.049,293.389 299.497,293.187 298.966 C 292.985 298.435,292.556 298.000,292.233 298.000 C 291.910 298.000,291.406 297.658,291.114 297.241 C 290.821 296.824,289.821 296.085,288.891 295.601 C 287.961 295.116,287.200 294.480,287.200 294.187 C 287.200 293.894,286.835 293.538,286.389 293.397 C 285.943 293.255,285.293 292.703,284.943 292.170 C 284.594 291.636,283.989 291.200,283.600 291.200 C 283.211 291.200,282.612 290.772,282.269 290.249 C 281.897 289.681,281.077 289.191,280.234 289.033 C 279.458 288.887,278.585 288.428,278.293 288.011 C 278.002 287.595,276.990 287.017,276.045 286.727 C 275.100 286.437,274.157 285.885,273.950 285.500 C 273.742 285.115,273.240 284.800,272.835 284.800 C 272.430 284.800,271.883 284.541,271.620 284.224 C 271.357 283.907,270.886 283.746,270.574 283.865 C 270.262 283.985,269.904 283.816,269.779 283.489 C 269.653 283.162,268.815 282.777,267.916 282.633 C 267.017 282.489,265.755 281.928,265.110 281.386 C 264.307 280.710,263.452 280.400,262.393 280.400 C 261.543 280.400,260.736 280.220,260.600 280.000 C 260.464 279.780,259.998 279.600,259.564 279.600 C 259.130 279.600,258.671 279.330,258.545 279.000 C 258.379 278.568,257.703 278.400,256.134 278.400 C 253.488 278.400,250.358 277.692,249.764 276.960 C 249.524 276.664,248.354 276.322,247.164 276.200 C 244.227 275.898,168.132 275.744,158.528 276.021 " stroke="none" fill="#141315" fill-rule="evenodd"></path><path id="path1" d="M0.000 243.800 L 0.000 487.600 86.100 487.600 C 133.455 487.600,223.455 487.720,286.100 487.867 L 400.000 488.133 400.000 244.066 L 400.000 0.000 200.000 0.000 L 0.000 0.000 0.000 243.800 M203.807 104.803 C 204.382 105.021,205.605 105.201,206.526 105.201 C 209.220 105.203,214.844 106.320,217.601 107.400 C 219.004 107.950,220.706 108.400,221.383 108.400 C 222.060 108.400,223.277 108.850,224.086 109.400 C 224.895 109.950,225.792 110.395,226.079 110.389 C 226.525 110.379,230.535 112.213,232.400 113.280 C 232.730 113.469,233.315 113.729,233.700 113.858 C 234.085 113.988,234.400 114.233,234.400 114.403 C 234.400 114.574,234.844 114.825,235.386 114.961 C 235.928 115.097,236.849 115.636,237.431 116.159 C 239.578 118.085,240.096 118.484,241.533 119.318 C 242.340 119.786,243.235 120.491,243.523 120.885 C 243.810 121.278,244.309 121.600,244.631 121.600 C 244.953 121.600,245.415 122.035,245.657 122.566 C 245.899 123.097,246.449 123.624,246.878 123.736 C 247.308 123.849,247.755 124.308,247.873 124.757 C 247.990 125.206,248.438 125.685,248.868 125.821 C 249.297 125.958,249.840 126.489,250.073 127.001 C 250.307 127.513,250.833 128.020,251.244 128.127 C 251.654 128.235,252.168 128.790,252.385 129.361 C 252.602 129.933,252.960 130.400,253.180 130.400 C 253.400 130.400,253.947 131.205,254.395 132.188 C 254.843 133.172,255.567 134.168,256.005 134.403 C 256.442 134.637,256.800 135.199,256.800 135.652 C 256.800 136.138,257.127 136.560,257.598 136.684 C 258.096 136.814,258.569 137.470,258.857 138.432 C 259.111 139.279,259.742 140.369,260.259 140.855 C 260.861 141.421,261.200 142.194,261.200 143.000 C 261.200 143.813,261.540 144.580,262.159 145.162 C 262.759 145.725,263.219 146.734,263.387 147.855 C 263.535 148.840,263.913 149.745,264.228 149.866 C 264.543 149.987,264.800 150.506,264.800 151.019 C 264.800 151.533,264.980 152.064,265.200 152.200 C 265.420 152.336,265.600 153.677,265.600 155.181 C 265.600 157.066,265.763 157.977,266.124 158.116 C 268.528 159.038,268.453 188.400,266.047 188.400 C 265.864 188.400,265.613 189.873,265.490 191.674 C 265.312 194.276,265.104 195.075,264.479 195.574 C 264.047 195.918,263.571 196.920,263.422 197.800 C 263.056 199.959,262.313 201.600,261.702 201.600 C 261.413 201.600,261.200 202.099,261.200 202.776 C 261.200 203.423,261.020 204.064,260.800 204.200 C 260.580 204.336,260.400 204.797,260.400 205.224 C 260.400 205.651,260.153 206.000,259.850 206.000 C 259.548 206.000,259.191 206.543,259.059 207.207 C 258.903 207.986,258.474 208.544,257.848 208.782 C 257.120 209.059,256.809 209.561,256.600 210.800 C 256.391 212.034,256.079 212.542,255.361 212.815 C 254.778 213.037,254.400 213.503,254.400 214.000 C 254.400 214.499,254.021 214.964,253.431 215.188 C 252.869 215.402,252.406 215.945,252.331 216.478 C 252.246 217.078,251.886 217.445,251.300 217.528 C 250.717 217.611,250.400 217.931,250.400 218.438 C 250.400 218.905,249.995 219.374,249.393 219.603 C 248.839 219.813,248.213 220.439,248.003 220.993 C 247.774 221.595,247.305 222.000,246.838 222.000 C 246.331 222.000,246.011 222.317,245.928 222.900 C 245.848 223.465,245.479 223.846,244.938 223.923 C 244.422 223.996,243.980 224.426,243.838 224.991 C 243.678 225.629,243.211 226.022,242.400 226.200 C 241.575 226.381,241.200 226.703,241.200 227.232 C 241.200 227.729,240.922 228.000,240.414 228.000 C 239.982 228.000,239.037 228.516,238.314 229.146 C 237.591 229.776,236.614 230.412,236.143 230.559 C 235.672 230.706,235.199 231.161,235.092 231.569 C 234.949 232.115,234.368 232.384,232.896 232.587 C 231.390 232.794,230.800 233.075,230.511 233.722 C 230.300 234.195,229.783 234.600,229.364 234.623 C 226.535 234.773,226.369 234.829,226.016 235.757 C 225.696 236.600,225.312 236.748,222.777 237.002 C 220.513 237.230,219.862 237.442,219.716 237.999 C 219.519 238.752,217.814 239.188,215.035 239.196 C 214.085 239.198,212.785 239.602,211.727 240.222 C 209.992 241.238,209.941 241.243,200.892 241.218 C 189.980 241.188,189.742 241.163,187.138 239.769 C 186.554 239.456,185.260 239.200,184.262 239.200 C 183.264 239.200,182.341 239.028,182.211 238.817 C 182.081 238.607,181.744 238.523,181.462 238.632 C 181.180 238.740,180.618 238.462,180.213 238.014 C 179.714 237.463,178.977 237.200,177.933 237.200 C 176.396 237.200,175.470 236.833,173.649 235.500 C 173.123 235.115,172.280 234.800,171.777 234.800 C 171.273 234.800,170.353 234.376,169.731 233.858 C 169.109 233.339,167.921 232.791,167.091 232.638 C 166.258 232.485,165.364 232.011,165.095 231.580 C 164.827 231.151,164.409 230.800,164.166 230.800 C 163.923 230.800,163.201 230.334,162.562 229.763 C 161.923 229.193,160.807 228.468,160.083 228.151 C 159.358 227.834,158.664 227.310,158.540 226.987 C 158.416 226.664,158.078 226.400,157.790 226.400 C 156.676 226.400,144.373 213.479,143.067 210.938 C 142.710 210.244,142.185 209.434,141.900 209.138 C 141.115 208.325,138.800 204.713,138.800 204.302 C 138.800 204.104,137.810 201.890,136.600 199.382 C 135.390 196.875,134.400 194.336,134.400 193.740 C 134.400 192.583,133.769 190.312,133.084 189.000 C 132.625 188.121,132.294 185.466,131.589 177.000 C 131.127 171.466,131.919 159.003,132.808 157.800 C 133.245 157.208,134.400 153.011,134.400 152.013 C 134.400 151.192,135.024 149.665,137.593 144.200 C 138.213 142.880,138.830 141.530,138.962 141.200 C 139.366 140.195,141.291 137.068,143.400 133.991 C 145.444 131.008,156.830 119.200,157.662 119.200 C 158.093 119.200,160.156 117.789,162.810 115.677 C 163.988 114.739,171.441 110.955,174.000 109.994 C 174.770 109.705,175.684 109.228,176.031 108.934 C 176.379 108.640,176.949 108.400,177.299 108.400 C 178.296 108.400,182.950 107.154,183.443 106.756 C 184.158 106.176,187.498 105.571,192.000 105.204 C 194.310 105.016,196.731 104.703,197.380 104.508 C 198.790 104.084,202.346 104.247,203.807 104.803 M239.600 274.736 C 241.470 274.965,244.800 275.333,247.000 275.555 C 249.200 275.777,251.775 276.240,252.722 276.585 C 253.670 276.930,255.830 277.412,257.522 277.657 C 259.215 277.902,260.870 278.304,261.200 278.551 C 262.462 279.496,263.624 280.000,264.539 280.000 C 265.061 280.000,266.114 280.424,266.878 280.943 C 267.642 281.462,268.933 282.011,269.746 282.164 C 270.559 282.316,271.874 282.882,272.668 283.420 C 273.462 283.959,274.442 284.400,274.847 284.400 C 275.251 284.400,275.876 284.850,276.237 285.400 C 276.597 285.950,277.204 286.400,277.586 286.400 C 277.967 286.400,279.072 286.937,280.040 287.593 C 281.008 288.249,282.025 288.789,282.300 288.793 C 282.575 288.797,282.800 288.972,282.800 289.183 C 282.800 289.394,283.652 290.066,284.694 290.676 C 285.736 291.287,287.323 292.532,288.222 293.443 C 289.120 294.355,290.248 295.225,290.728 295.377 C 291.207 295.529,291.600 295.917,291.600 296.240 C 291.600 296.562,291.915 296.939,292.300 297.078 C 293.203 297.405,296.000 300.202,296.000 300.778 C 296.000 301.021,296.450 301.391,297.000 301.600 C 297.618 301.835,298.000 302.294,298.000 302.800 C 298.000 303.295,298.376 303.763,298.949 303.981 C 299.471 304.179,300.015 304.805,300.157 305.371 C 300.299 305.937,300.590 306.400,300.803 306.400 C 301.016 306.400,301.666 307.165,302.249 308.100 C 302.831 309.035,303.644 310.122,304.054 310.516 C 304.464 310.909,304.800 311.584,304.800 312.016 C 304.800 312.447,304.976 312.800,305.190 312.800 C 305.405 312.800,305.931 313.569,306.359 314.510 C 306.787 315.450,307.496 316.544,307.933 316.939 C 308.370 317.335,308.848 318.141,308.995 318.729 C 309.142 319.318,309.698 320.373,310.231 321.073 C 310.833 321.864,311.200 322.882,311.200 323.759 C 311.200 324.742,311.433 325.297,311.966 325.582 C 312.452 325.842,312.896 326.756,313.180 328.081 C 313.426 329.230,313.828 330.293,314.072 330.444 C 314.854 330.928,315.588 333.728,315.594 336.257 C 315.598 338.068,315.758 338.775,316.200 338.945 C 316.530 339.071,316.800 339.530,316.800 339.964 C 316.800 340.398,316.952 340.847,317.137 340.961 C 317.323 341.076,317.592 343.609,317.735 346.591 C 317.903 350.102,318.217 352.539,318.626 353.506 C 319.522 355.624,319.774 362.168,318.991 362.952 C 318.217 363.726,317.772 364.973,317.423 367.346 C 317.212 368.785,316.937 369.344,316.369 369.492 C 315.946 369.603,315.600 370.028,315.600 370.436 C 315.600 370.857,315.080 371.448,314.400 371.800 C 313.740 372.141,313.200 372.674,313.200 372.983 C 313.200 373.293,312.795 373.667,312.300 373.816 C 311.805 373.964,311.127 374.429,310.793 374.850 C 310.341 375.419,309.352 375.709,306.908 375.988 C 305.106 376.193,303.209 376.638,302.693 376.976 C 301.727 377.609,99.693 378.003,97.763 377.375 C 97.343 377.239,96.640 376.970,96.200 376.777 C 95.760 376.584,94.050 376.250,92.400 376.034 C 90.095 375.732,89.273 375.451,88.851 374.821 C 88.549 374.369,87.982 374.000,87.591 374.000 C 86.816 374.000,82.400 369.322,82.400 368.501 C 82.400 368.223,81.931 367.052,81.358 365.898 C 80.080 363.324,79.643 357.732,80.382 353.400 C 80.644 351.860,81.005 349.051,81.184 347.159 C 81.363 345.266,81.710 343.343,81.955 342.885 C 82.200 342.427,82.400 341.357,82.400 340.506 C 82.400 339.656,82.571 338.789,82.779 338.580 C 82.988 338.371,83.336 337.210,83.554 336.000 C 84.215 332.325,84.848 330.000,85.186 330.000 C 85.362 330.000,85.603 329.595,85.721 329.100 C 86.054 327.697,86.982 325.350,87.440 324.746 C 87.669 324.446,88.096 323.390,88.390 322.400 C 88.909 320.648,89.733 319.155,92.065 315.735 C 92.689 314.819,93.200 313.973,93.200 313.855 C 93.200 313.737,93.740 312.840,94.400 311.862 C 95.060 310.884,95.600 309.885,95.600 309.642 C 95.600 309.399,95.741 309.200,95.914 309.200 C 96.086 309.200,96.526 308.705,96.891 308.100 C 97.256 307.495,97.974 306.550,98.487 306.000 C 98.999 305.450,100.716 303.440,102.302 301.532 C 103.888 299.625,105.774 297.654,106.493 297.153 C 107.833 296.219,108.090 296.006,111.219 293.235 C 113.368 291.332,120.781 286.406,121.500 286.402 C 121.775 286.401,122.000 286.263,122.000 286.095 C 122.000 285.753,122.441 285.489,125.708 283.874 C 126.960 283.255,128.089 282.580,128.216 282.374 C 128.343 282.168,128.799 282.000,129.229 282.000 C 129.659 282.000,130.323 281.833,130.705 281.629 C 131.087 281.425,131.670 281.156,132.000 281.032 C 132.330 280.907,132.870 280.646,133.200 280.451 C 133.530 280.256,134.790 279.778,136.000 279.389 C 137.210 279.000,138.380 278.555,138.600 278.400 C 138.820 278.245,140.710 277.803,142.800 277.418 C 144.890 277.033,146.958 276.529,147.394 276.297 C 148.229 275.854,150.695 275.548,159.600 274.780 C 162.570 274.524,165.081 274.237,165.181 274.143 C 165.571 273.773,236.338 274.337,239.600 274.736 " stroke="none" fill="#c453f8" fill-rule="evenodd"></path><path id="path2" d="M197.015 105.149 C 196.364 105.288,197.714 105.409,200.015 105.416 C 202.317 105.423,203.660 105.309,203.000 105.162 C 201.484 104.824,198.559 104.818,197.015 105.149 M209.700 106.276 C 210.085 106.376,210.715 106.376,211.100 106.276 C 211.485 106.175,211.170 106.093,210.400 106.093 C 209.630 106.093,209.315 106.175,209.700 106.276 M213.600 106.667 C 213.930 106.780,214.767 107.126,215.460 107.436 C 217.285 108.252,217.639 108.097,216.000 107.200 C 215.230 106.778,214.240 106.440,213.800 106.448 C 213.252 106.458,213.189 106.528,213.600 106.667 M220.200 108.674 C 220.640 108.773,221.600 109.128,222.332 109.461 C 223.065 109.795,223.760 109.974,223.876 109.858 C 224.190 109.543,221.234 108.393,220.251 108.446 C 219.447 108.490,219.444 108.503,220.200 108.674 M227.686 111.800 C 228.495 112.350,229.292 112.800,229.456 112.800 C 229.621 112.800,229.145 112.350,228.400 111.800 C 227.655 111.250,226.858 110.800,226.629 110.800 C 226.401 110.800,226.877 111.250,227.686 111.800 M231.192 113.246 C 231.737 113.464,232.466 113.858,232.811 114.121 C 233.157 114.384,233.015 114.195,232.497 113.700 C 231.979 113.205,231.250 112.811,230.878 112.825 C 230.427 112.842,230.532 112.983,231.192 113.246 M234.033 114.916 C 234.125 114.980,234.872 115.527,235.693 116.131 C 236.669 116.850,237.103 117.012,236.945 116.600 C 236.723 116.022,234.828 114.800,234.153 114.800 C 233.996 114.800,233.942 114.852,234.033 114.916 M238.000 117.496 C 238.330 117.625,238.835 118.016,239.122 118.365 C 239.565 118.904,239.578 118.863,239.208 118.100 C 238.968 117.605,238.463 117.214,238.086 117.232 C 237.530 117.257,237.514 117.307,238.000 117.496 M241.442 120.100 C 242.053 120.595,244.758 123.141,247.454 125.757 C 250.553 128.765,252.270 130.188,252.123 129.627 C 251.995 129.138,251.481 128.583,250.980 128.392 C 250.478 128.202,249.960 127.703,249.827 127.284 C 249.693 126.864,249.138 126.318,248.592 126.069 C 248.047 125.821,247.600 125.339,247.600 124.999 C 247.600 124.659,247.165 124.215,246.634 124.013 C 246.103 123.811,245.551 123.276,245.407 122.823 C 245.264 122.370,244.964 122.000,244.740 122.000 C 244.517 122.000,243.566 121.370,242.626 120.600 C 241.686 119.830,240.786 119.200,240.625 119.200 C 240.464 119.200,240.832 119.605,241.442 120.100 M253.346 132.165 C 253.926 132.925,254.400 133.769,254.400 134.040 C 254.400 134.311,254.527 134.406,254.682 134.251 C 255.065 133.868,253.649 131.305,252.896 131.015 C 252.529 130.874,252.704 131.324,253.346 132.165 M256.439 136.466 C 257.787 138.752,259.165 140.353,258.678 139.067 C 258.525 138.664,258.400 138.079,258.400 137.767 C 258.400 137.455,258.121 137.200,257.779 137.200 C 257.438 137.200,256.975 136.674,256.751 136.032 C 256.527 135.390,256.097 134.769,255.795 134.653 C 255.481 134.533,255.757 135.310,256.439 136.466 M258.800 140.401 C 258.800 140.601,259.250 141.428,259.800 142.238 C 260.350 143.049,260.800 143.963,260.800 144.270 C 260.800 144.577,261.352 145.767,262.026 146.914 C 263.198 148.907,263.241 148.938,262.987 147.600 C 262.840 146.830,262.391 145.930,261.988 145.600 C 261.585 145.270,261.126 144.280,260.969 143.400 C 260.723 142.030,258.800 139.370,258.800 140.401 M263.200 150.256 C 263.200 150.499,263.558 151.508,263.996 152.497 C 264.434 153.487,264.968 155.265,265.182 156.448 C 265.564 158.551,265.569 158.534,265.381 155.671 C 265.217 153.175,263.200 148.167,263.200 150.256 M265.788 159.500 C 267.582 164.088,267.539 183.115,265.727 186.600 C 265.498 187.040,265.200 188.249,265.065 189.286 C 264.930 190.323,264.468 192.211,264.039 193.482 C 263.151 196.114,263.151 196.118,264.116 195.412 C 264.643 195.027,264.952 193.910,265.289 191.171 C 265.598 188.665,265.972 187.228,266.436 186.764 C 268.395 184.805,267.869 158.800,265.870 158.800 C 265.674 158.800,265.638 159.115,265.788 159.500 M132.493 162.000 C 132.493 162.770,132.575 163.085,132.676 162.700 C 132.776 162.315,132.776 161.685,132.676 161.300 C 132.575 160.915,132.493 161.230,132.493 162.000 M132.524 184.200 C 132.526 185.520,132.601 186.012,132.690 185.293 C 132.779 184.574,132.777 183.494,132.686 182.893 C 132.595 182.292,132.522 182.880,132.524 184.200 M134.846 194.251 C 134.821 194.719,135.115 195.349,135.500 195.651 C 136.109 196.128,136.140 196.122,135.743 195.600 C 135.492 195.270,135.198 194.640,135.089 194.200 C 134.903 193.440,134.890 193.443,134.846 194.251 M262.710 197.452 C 262.561 198.140,262.152 198.991,261.801 199.342 C 261.450 199.693,260.891 200.894,260.560 202.011 C 260.228 203.128,259.717 204.134,259.423 204.246 C 259.130 204.359,258.792 204.939,258.673 205.535 C 258.554 206.132,257.910 207.335,257.242 208.210 C 256.574 209.084,255.754 210.160,255.420 210.600 C 255.086 211.040,254.450 211.878,254.007 212.463 C 253.563 213.048,253.200 213.640,253.200 213.780 C 253.200 214.667,242.705 225.028,240.846 225.977 C 239.941 226.438,239.200 226.998,239.200 227.221 C 239.200 227.444,238.795 227.789,238.300 227.988 C 237.747 228.210,237.639 228.359,238.020 228.375 C 238.978 228.414,240.793 227.457,240.797 226.911 C 240.799 226.643,241.385 226.272,242.100 226.088 C 242.999 225.856,243.439 225.482,243.528 224.876 C 243.610 224.312,243.938 224.000,244.449 224.000 C 244.967 224.000,245.384 223.592,245.652 222.824 C 245.908 222.088,246.387 221.601,246.931 221.524 C 247.470 221.447,247.847 221.068,247.925 220.525 C 248.002 219.979,248.379 219.602,248.925 219.525 C 249.448 219.450,249.847 219.071,249.917 218.581 C 249.986 218.101,250.523 217.578,251.217 217.316 C 251.940 217.043,252.400 216.582,252.400 216.130 C 252.400 215.723,252.800 215.212,253.290 214.995 C 253.847 214.747,254.306 214.055,254.520 213.139 C 254.737 212.211,255.143 211.604,255.633 211.475 C 256.088 211.356,256.500 210.798,256.637 210.117 C 256.766 209.472,257.247 208.792,257.723 208.580 C 258.268 208.338,258.714 207.619,258.950 206.600 C 259.155 205.720,259.644 204.772,260.037 204.494 C 260.451 204.201,260.870 203.209,261.030 202.143 C 261.228 200.816,261.518 200.242,262.057 200.101 C 262.883 199.885,263.345 198.602,263.123 197.141 C 262.996 196.306,262.950 196.341,262.710 197.452 M136.805 199.000 C 136.805 199.220,137.163 199.940,137.600 200.600 C 138.037 201.260,138.395 201.620,138.395 201.400 C 138.395 201.180,138.037 200.460,137.600 199.800 C 137.163 199.140,136.805 198.780,136.805 199.000 M139.202 204.300 C 139.203 204.465,139.657 205.140,140.210 205.800 L 141.216 207.000 140.368 205.500 C 139.545 204.042,139.198 203.685,139.202 204.300 M141.200 207.957 C 141.200 208.150,141.650 208.603,142.200 208.963 C 142.750 209.324,143.200 209.557,143.200 209.481 C 143.200 209.406,142.750 208.953,142.200 208.475 C 141.650 207.997,141.200 207.763,141.200 207.957 M143.868 211.400 C 144.708 212.797,145.605 213.802,145.589 213.329 C 145.583 213.148,145.031 212.370,144.362 211.600 C 143.242 210.311,143.203 210.295,143.868 211.400 M159.585 227.156 C 160.347 227.840,161.136 228.400,161.339 228.400 C 161.542 228.400,161.189 228.008,160.554 227.528 C 158.561 226.023,158.147 225.864,159.585 227.156 M162.888 229.413 C 163.486 230.043,164.047 230.477,164.135 230.379 C 164.223 230.280,163.733 229.765,163.047 229.234 L 161.800 228.269 162.888 229.413 M236.832 228.660 C 236.802 229.086,235.620 229.937,232.608 231.700 L 231.412 232.400 232.916 232.400 C 234.152 232.400,234.488 232.222,234.800 231.400 C 235.035 230.781,235.493 230.400,236.003 230.400 C 236.879 230.400,237.410 229.560,237.069 228.713 C 236.938 228.387,236.852 228.367,236.832 228.660 M165.081 231.067 C 165.283 231.594,167.159 232.597,167.407 232.311 C 167.460 232.250,166.907 231.811,166.178 231.336 C 165.228 230.716,164.917 230.640,165.081 231.067 M228.859 233.405 C 227.902 233.952,226.912 234.406,226.659 234.413 C 225.958 234.432,221.336 236.801,222.010 236.796 C 223.878 236.782,225.548 236.242,225.717 235.598 C 225.850 235.086,226.480 234.809,227.979 234.603 C 229.357 234.413,230.139 234.095,230.299 233.659 C 230.433 233.296,230.735 232.868,230.971 232.706 C 232.042 231.973,230.433 232.505,228.859 233.405 M169.600 233.254 C 169.600 233.620,172.384 234.887,172.798 234.709 C 172.938 234.649,172.276 234.222,171.327 233.759 C 170.377 233.297,169.600 233.069,169.600 233.254 M175.000 235.780 C 175.660 236.339,176.560 236.776,177.000 236.752 L 177.800 236.707 177.000 236.507 C 176.560 236.397,176.110 236.193,176.000 236.054 C 175.890 235.914,175.350 235.567,174.800 235.282 C 173.939 234.835,173.966 234.905,175.000 235.780 M218.400 237.443 C 217.630 237.780,216.010 238.298,214.800 238.594 C 212.091 239.258,213.231 239.357,216.676 238.757 C 218.455 238.448,219.339 238.087,219.623 237.557 C 219.846 237.141,219.977 236.807,219.914 236.816 C 219.851 236.824,219.170 237.107,218.400 237.443 M180.400 237.383 C 180.400 237.842,183.155 238.810,184.946 238.981 L 187.000 239.177 185.200 238.797 C 184.210 238.588,183.040 238.249,182.600 238.045 C 181.469 237.518,180.400 237.197,180.400 237.383 M208.600 239.865 C 204.546 240.714,198.516 240.947,194.600 240.405 C 188.332 239.539,188.595 239.555,189.093 240.053 C 190.284 241.244,209.524 241.448,210.690 240.281 C 211.620 239.351,211.330 239.293,208.600 239.865 M187.200 274.800 C 187.200 275.020,187.560 275.200,188.000 275.200 C 188.440 275.200,188.800 275.020,188.800 274.800 C 188.800 274.580,188.440 274.400,188.000 274.400 C 187.560 274.400,187.200 274.580,187.200 274.800 M195.124 274.860 C 194.512 275.032,194.902 275.134,196.276 275.160 C 197.418 275.182,198.436 275.065,198.538 274.900 C 198.766 274.532,196.389 274.504,195.124 274.860 M209.062 274.900 C 209.164 275.065,215.297 275.200,222.690 275.200 C 230.084 275.200,236.011 275.077,235.861 274.927 C 235.486 274.553,208.830 274.526,209.062 274.900 M152.300 275.882 C 152.795 275.978,153.605 275.978,154.100 275.882 C 154.595 275.787,154.190 275.709,153.200 275.709 C 152.210 275.709,151.805 275.787,152.300 275.882 M244.300 275.889 C 245.015 275.978,246.185 275.978,246.900 275.889 C 247.615 275.801,247.030 275.728,245.600 275.728 C 244.170 275.728,243.585 275.801,244.300 275.889 M250.000 276.506 C 250.330 276.832,251.230 277.206,252.000 277.338 C 253.360 277.571,253.371 277.563,252.400 277.039 C 250.667 276.105,249.281 275.797,250.000 276.506 M258.569 278.414 C 259.431 278.635,260.421 279.028,260.769 279.286 C 261.343 279.714,261.343 279.693,260.772 279.065 C 260.427 278.684,259.437 278.292,258.572 278.193 L 257.000 278.012 258.569 278.414 M263.693 280.274 C 264.074 280.374,265.209 280.893,266.214 281.428 C 267.220 281.963,268.258 282.400,268.521 282.400 C 268.785 282.400,268.010 281.867,266.800 281.216 C 265.590 280.565,264.240 280.045,263.800 280.062 C 263.142 280.087,263.123 280.125,263.693 280.274 M270.962 283.400 C 271.772 283.950,272.516 284.400,272.615 284.400 C 272.714 284.400,272.403 283.950,271.925 283.400 C 271.447 282.850,270.703 282.400,270.272 282.400 C 269.678 282.400,269.845 282.642,270.962 283.400 M274.656 285.137 C 275.347 285.576,276.033 286.130,276.180 286.368 C 276.327 286.605,276.752 286.786,277.124 286.768 C 277.672 286.743,277.686 286.696,277.200 286.520 C 276.870 286.401,276.330 285.984,276.000 285.594 C 275.670 285.204,274.950 284.762,274.400 284.612 C 273.525 284.372,273.557 284.438,274.656 285.137 M279.000 287.804 C 280.205 288.800,281.048 289.125,280.616 288.425 C 280.488 288.219,279.803 287.772,279.092 287.431 L 277.800 286.811 279.000 287.804 M281.233 288.900 C 281.325 288.955,281.921 289.450,282.558 290.000 L 283.715 291.000 283.012 289.900 C 282.625 289.295,282.029 288.800,281.687 288.800 C 281.346 288.800,281.142 288.845,281.233 288.900 M284.035 290.900 C 284.128 290.955,284.788 291.529,285.502 292.175 C 286.216 292.821,286.800 293.233,286.800 293.091 C 286.800 292.707,284.667 290.800,284.237 290.800 C 284.034 290.800,283.943 290.845,284.035 290.900 M288.600 294.583 C 289.480 295.373,290.689 296.420,291.288 296.910 C 292.662 298.035,295.128 300.496,296.299 301.912 C 296.794 302.511,297.763 303.681,298.453 304.513 C 299.717 306.040,300.226 306.255,299.772 305.072 C 299.637 304.719,299.183 304.321,298.763 304.188 C 298.343 304.055,298.000 303.594,298.000 303.164 C 298.000 302.719,297.570 302.187,297.000 301.927 C 296.450 301.677,296.000 301.293,296.000 301.076 C 296.000 300.609,292.468 297.200,291.985 297.200 C 291.803 297.200,291.540 296.840,291.400 296.400 C 291.260 295.960,290.886 295.600,290.569 295.600 C 290.252 295.600,289.679 295.226,289.296 294.770 C 288.913 294.313,288.240 293.761,287.800 293.543 C 287.360 293.324,287.720 293.792,288.600 294.583 M300.311 307.004 C 300.828 308.007,302.400 309.461,302.400 308.937 C 302.400 308.724,301.837 308.021,301.148 307.375 C 300.255 306.536,300.015 306.430,300.311 307.004 M302.406 309.913 C 302.403 310.194,302.665 310.527,302.988 310.651 C 303.312 310.775,304.022 311.849,304.566 313.038 C 305.110 314.227,305.733 315.200,305.949 315.200 C 306.165 315.200,306.424 315.515,306.524 315.900 C 306.679 316.491,306.714 316.498,306.754 315.949 C 306.779 315.591,306.530 315.074,306.200 314.800 C 305.870 314.526,305.600 314.131,305.600 313.922 C 305.600 313.714,305.330 313.273,305.000 312.943 C 304.670 312.613,304.400 311.990,304.400 311.559 C 304.400 311.128,304.085 310.659,303.700 310.517 C 303.315 310.375,302.868 310.065,302.706 309.829 C 302.510 309.543,302.410 309.571,302.406 309.913 M307.675 318.147 C 308.661 319.650,309.032 319.762,308.609 318.430 C 308.464 317.973,307.989 317.408,307.553 317.175 C 306.818 316.781,306.827 316.852,307.675 318.147 M308.832 320.476 C 308.814 320.848,308.975 321.261,309.189 321.393 C 309.608 321.652,310.611 323.695,310.960 325.000 C 311.077 325.440,311.085 324.990,310.978 324.000 C 310.863 322.944,310.481 321.946,310.053 321.586 C 309.652 321.248,309.220 320.708,309.094 320.386 C 308.910 319.920,308.857 319.939,308.832 320.476 M312.125 327.959 C 312.606 329.037,313.067 329.736,313.149 329.513 C 313.406 328.811,312.296 326.000,311.761 326.000 C 311.397 326.000,311.501 326.561,312.125 327.959 M313.200 330.855 C 313.200 331.167,313.438 331.777,313.729 332.211 C 314.193 332.904,314.803 335.193,315.376 338.400 C 315.475 338.950,315.467 338.001,315.360 336.292 C 315.189 333.559,313.200 328.554,313.200 330.855 M315.619 340.000 C 315.619 340.330,315.975 341.663,316.410 342.962 C 316.889 344.395,317.231 346.598,317.278 348.562 L 317.357 351.800 317.507 349.000 C 317.724 344.935,317.286 341.568,316.387 340.400 C 315.882 339.743,315.618 339.606,315.619 340.000 M317.878 355.600 C 318.210 358.022,318.198 359.869,317.838 362.000 C 317.708 362.770,317.706 363.175,317.834 362.900 C 317.962 362.625,318.336 362.400,318.665 362.400 C 319.480 362.400,319.162 356.767,318.236 354.800 L 317.577 353.400 317.878 355.600 M80.501 356.600 C 80.505 357.480,80.587 357.793,80.683 357.295 C 80.779 356.798,80.775 356.078,80.675 355.695 C 80.575 355.313,80.496 355.720,80.501 356.600 M80.455 361.200 C 80.440 361.750,80.704 362.650,81.042 363.200 C 81.449 363.864,81.562 363.931,81.378 363.400 C 81.226 362.960,80.962 362.060,80.791 361.400 C 80.508 360.302,80.480 360.285,80.455 361.200 M317.260 364.906 C 317.116 367.556,313.146 372.858,310.689 373.681 C 309.980 373.919,309.074 374.396,308.675 374.741 C 308.277 375.086,307.107 375.487,306.075 375.631 L 304.200 375.893 306.000 375.946 C 307.122 375.979,308.327 375.706,309.200 375.221 C 309.970 374.793,311.185 374.161,311.900 373.816 C 312.615 373.471,313.200 372.917,313.200 372.585 C 313.200 372.252,313.627 371.818,314.149 371.619 C 314.671 371.421,315.215 370.795,315.357 370.229 C 315.499 369.663,315.875 369.200,316.192 369.200 C 316.884 369.200,317.718 366.402,317.484 364.870 L 317.320 363.800 317.260 364.906 M89.200 374.401 C 89.200 374.998,92.058 376.055,93.191 375.878 C 94.192 375.721,94.192 375.719,93.112 375.660 C 92.514 375.627,91.389 375.243,90.612 374.807 C 89.835 374.371,89.200 374.188,89.200 374.401 M199.800 376.399 C 143.700 376.509,98.520 376.733,99.400 376.896 C 102.878 377.538,301.009 377.252,302.254 376.602 C 303.078 376.173,303.175 376.032,302.600 376.101 C 302.160 376.154,255.900 376.288,199.800 376.399 " stroke="none" fill="#742f8d" fill-rule="evenodd"></path><path id="path3" d="M194.800 105.659 C 188.184 106.320,185.095 106.789,184.589 107.210 C 184.307 107.443,182.934 107.898,181.538 108.219 L 179.000 108.804 181.980 108.592 C 184.169 108.436,185.142 108.183,185.649 107.640 C 186.721 106.489,196.211 106.007,207.800 106.514 L 213.400 106.760 207.000 106.009 C 199.941 105.180,199.674 105.172,194.800 105.659 M214.182 107.416 C 215.124 108.129,217.426 108.805,218.800 108.771 C 219.382 108.757,218.883 108.501,217.604 108.157 C 216.395 107.833,215.234 107.394,215.024 107.184 C 214.813 106.973,214.361 106.806,214.020 106.813 C 213.530 106.823,213.563 106.949,214.182 107.416 M176.976 109.387 C 176.549 109.710,175.304 110.278,174.209 110.649 C 173.114 111.021,171.975 111.567,171.679 111.864 C 171.382 112.161,170.343 112.604,169.370 112.849 C 168.396 113.094,167.600 113.440,167.600 113.618 C 167.600 113.796,166.610 114.395,165.400 114.949 C 164.190 115.503,163.200 116.134,163.200 116.351 C 163.200 116.568,162.860 116.854,162.445 116.986 C 162.029 117.118,161.227 117.625,160.663 118.113 C 160.099 118.601,158.704 119.630,157.564 120.400 C 154.848 122.234,146.537 130.564,145.610 132.380 C 145.211 133.161,144.506 134.143,144.043 134.562 C 143.579 134.981,143.200 135.556,143.200 135.839 C 143.200 136.123,142.856 136.596,142.435 136.891 C 142.014 137.185,141.346 138.140,140.951 139.013 C 140.555 139.886,140.031 140.870,139.787 141.200 C 139.542 141.530,139.095 142.584,138.793 143.543 C 138.491 144.501,138.009 145.375,137.722 145.485 C 137.435 145.595,137.198 145.981,137.196 146.343 C 137.194 146.704,136.728 147.990,136.162 149.200 C 135.220 151.210,134.859 152.589,134.144 156.894 C 134.008 157.716,133.650 158.593,133.348 158.843 C 132.428 159.607,132.619 161.320,133.559 160.733 C 134.402 160.206,135.200 156.980,135.200 154.096 C 135.200 152.680,135.355 152.284,135.976 152.122 C 136.577 151.965,136.814 151.428,137.023 149.753 C 137.172 148.562,137.498 147.455,137.747 147.294 C 138.532 146.785,139.209 145.246,139.463 143.391 C 139.648 142.042,139.882 141.600,140.412 141.600 C 141.155 141.600,141.600 140.838,141.600 139.567 C 141.600 139.067,141.878 138.800,142.400 138.800 C 142.840 138.800,143.201 138.575,143.202 138.300 C 143.210 136.670,144.083 134.844,144.912 134.726 C 145.544 134.636,145.837 134.283,145.927 133.500 C 146.013 132.752,146.285 132.400,146.777 132.400 C 147.260 132.400,147.579 132.003,147.740 131.200 C 147.912 130.341,148.210 130.000,148.790 130.000 C 149.260 130.000,149.600 129.736,149.600 129.371 C 149.600 128.539,150.685 127.481,151.207 127.804 C 151.435 127.945,151.814 127.507,152.049 126.830 C 152.312 126.076,152.755 125.600,153.192 125.600 C 153.585 125.600,154.000 125.242,154.115 124.805 C 154.229 124.367,154.765 123.841,155.307 123.636 C 155.848 123.430,156.388 122.888,156.508 122.431 C 156.642 121.920,157.051 121.600,157.572 121.600 C 158.108 121.600,158.560 121.232,158.800 120.600 C 159.035 119.982,159.494 119.600,160.000 119.600 C 160.497 119.600,160.963 119.222,161.185 118.639 C 161.458 117.921,161.966 117.609,163.200 117.400 C 164.434 117.191,164.942 116.879,165.215 116.161 C 165.462 115.512,165.894 115.200,166.548 115.200 C 167.080 115.200,167.940 114.753,168.458 114.207 C 168.976 113.661,169.670 113.210,170.000 113.205 C 171.375 113.184,173.600 112.323,173.600 111.812 C 173.600 111.459,174.336 111.142,175.652 110.931 C 177.101 110.697,177.879 110.336,178.301 109.700 C 179.028 108.603,178.255 108.421,176.976 109.387 M221.484 109.548 C 221.878 109.959,223.145 110.533,224.300 110.823 C 225.455 111.114,226.400 111.470,226.400 111.615 C 226.400 112.065,229.500 113.302,230.065 113.077 C 230.418 112.936,230.355 112.852,229.879 112.832 C 229.482 112.814,228.495 112.350,227.686 111.800 C 226.877 111.250,225.985 110.800,225.705 110.800 C 225.425 110.800,224.263 110.350,223.123 109.800 C 220.640 108.602,220.569 108.591,221.484 109.548 M231.800 114.188 C 232.460 114.729,233.260 115.178,233.578 115.186 C 233.895 115.194,233.545 114.750,232.800 114.200 C 231.050 112.909,230.228 112.899,231.800 114.188 M234.649 115.783 C 234.787 116.143,235.755 116.870,236.800 117.400 C 237.845 117.930,238.807 118.641,238.938 118.981 C 239.068 119.322,239.424 119.600,239.728 119.600 C 240.032 119.600,240.846 120.140,241.537 120.800 C 242.228 121.460,242.962 122.000,243.169 122.000 C 243.377 122.000,243.660 122.360,243.800 122.800 C 243.940 123.240,244.316 123.600,244.636 123.600 C 244.955 123.600,245.421 124.047,245.669 124.592 C 245.918 125.138,246.464 125.693,246.884 125.827 C 247.303 125.960,247.811 126.503,248.013 127.034 C 248.215 127.565,248.659 128.000,248.999 128.000 C 249.339 128.000,249.822 128.450,250.073 129.000 C 250.323 129.550,250.774 130.000,251.074 130.000 C 251.374 130.000,251.777 130.412,251.968 130.916 C 252.160 131.420,252.639 132.095,253.033 132.416 C 253.684 132.947,253.679 132.881,252.980 131.686 C 252.192 130.339,243.454 121.636,241.447 120.200 C 240.832 119.760,239.887 118.995,239.347 118.500 C 238.806 118.005,238.227 117.600,238.061 117.600 C 237.894 117.600,237.002 117.044,236.078 116.365 C 234.980 115.557,234.485 115.356,234.649 115.783 M254.802 134.667 C 255.034 134.781,255.655 135.724,256.181 136.763 C 256.707 137.801,257.422 138.886,257.769 139.174 C 258.116 139.462,258.400 139.996,258.400 140.360 C 258.400 140.724,258.682 141.425,259.027 141.917 C 259.371 142.409,259.910 143.304,260.224 143.906 C 260.565 144.559,260.796 144.740,260.798 144.356 C 260.799 144.002,260.350 143.049,259.800 142.238 C 259.250 141.428,258.800 140.515,258.800 140.211 C 258.800 139.906,258.536 139.393,258.212 139.070 C 257.889 138.746,257.119 137.622,256.502 136.571 C 255.884 135.520,255.154 134.615,254.880 134.560 C 254.605 134.505,254.570 134.553,254.802 134.667 M261.016 146.000 C 261.163 146.550,261.644 147.360,262.084 147.800 L 262.885 148.600 262.257 147.400 C 261.216 145.409,260.702 144.830,261.016 146.000 M262.976 150.200 C 263.133 151.882,264.305 155.029,264.647 154.686 C 264.757 154.576,264.543 153.792,264.171 152.943 C 263.800 152.094,263.345 150.770,263.161 150.000 L 262.826 148.600 262.976 150.200 M264.893 156.800 C 264.893 157.570,264.975 157.885,265.076 157.500 C 265.176 157.115,265.176 156.485,265.076 156.100 C 264.975 155.715,264.893 156.030,264.893 156.800 M265.236 159.000 C 265.223 159.440,265.471 160.520,265.788 161.400 C 266.235 162.640,266.362 162.775,266.352 162.000 C 266.336 160.725,265.271 157.863,265.236 159.000 M132.549 163.283 C 132.124 163.970,132.210 181.331,132.642 182.103 C 132.860 182.494,133.000 178.858,133.000 172.772 C 133.000 167.288,132.966 162.800,132.924 162.800 C 132.882 162.800,132.713 163.017,132.549 163.283 M266.681 166.400 C 266.804 168.050,266.971 169.475,267.052 169.567 C 267.331 169.881,267.154 166.601,266.806 165.000 C 266.548 163.814,266.516 164.176,266.681 166.400 M266.635 178.635 C 266.483 180.316,266.441 181.774,266.542 181.876 C 266.643 181.977,266.855 180.688,267.012 179.012 C 267.169 177.336,267.211 175.877,267.105 175.771 C 266.999 175.666,266.788 176.954,266.635 178.635 M265.666 185.139 C 265.379 186.095,265.223 186.956,265.318 187.052 C 265.623 187.357,266.476 184.892,266.329 184.132 C 266.241 183.675,265.992 184.054,265.666 185.139 M132.854 185.239 C 132.825 185.810,133.077 186.833,133.416 187.512 C 133.755 188.191,134.304 190.063,134.636 191.673 C 134.968 193.283,135.605 195.410,136.052 196.400 C 137.096 198.714,139.191 203.188,139.671 204.129 C 141.434 207.582,141.851 208.265,142.481 208.723 C 142.876 209.010,143.200 209.434,143.200 209.665 C 143.200 209.896,143.740 210.767,144.400 211.600 C 145.060 212.433,145.600 213.294,145.600 213.514 C 145.600 213.827,153.532 221.952,156.400 224.575 C 157.984 226.024,161.185 227.920,160.785 227.172 C 160.557 226.747,159.793 226.152,159.086 225.851 C 158.379 225.550,157.364 224.830,156.830 224.252 C 156.297 223.673,155.643 223.200,155.377 223.200 C 155.111 223.200,154.796 222.827,154.676 222.370 C 154.557 221.914,154.108 221.449,153.678 221.336 C 153.249 221.224,152.707 220.713,152.473 220.201 C 152.240 219.689,151.697 219.158,151.268 219.021 C 150.838 218.885,150.390 218.406,150.273 217.957 C 150.155 217.508,149.692 217.045,149.243 216.927 C 148.794 216.810,148.320 216.378,148.190 215.967 C 148.059 215.557,147.536 214.893,147.026 214.492 C 146.516 214.091,145.970 213.175,145.812 212.456 C 145.632 211.635,145.167 210.986,144.563 210.710 C 144.033 210.469,143.600 209.945,143.600 209.545 C 143.600 209.145,143.164 208.533,142.631 208.183 C 141.985 207.761,141.570 207.006,141.387 205.925 C 141.207 204.858,140.870 204.239,140.402 204.116 C 139.931 203.993,139.604 203.383,139.431 202.306 C 139.289 201.413,138.728 200.155,138.186 199.510 C 137.644 198.866,137.200 197.924,137.200 197.418 C 137.200 196.284,136.112 193.600,135.652 193.600 C 135.467 193.600,135.210 192.206,135.081 190.503 C 134.899 188.089,134.673 187.265,134.060 186.768 C 133.627 186.417,133.191 185.696,133.091 185.165 C 132.910 184.208,132.908 184.209,132.854 185.239 M264.893 188.800 C 264.893 189.570,264.975 189.885,265.076 189.500 C 265.176 189.115,265.176 188.485,265.076 188.100 C 264.975 187.715,264.893 188.030,264.893 188.800 M263.721 193.097 C 263.459 193.704,263.139 194.740,263.009 195.400 C 262.854 196.191,263.056 195.934,263.602 194.645 C 264.057 193.570,264.378 192.533,264.314 192.342 C 264.250 192.150,263.984 192.490,263.721 193.097 M262.065 198.217 C 261.395 199.688,261.523 200.002,262.247 198.665 C 262.586 198.040,262.788 197.454,262.696 197.363 C 262.605 197.271,262.321 197.656,262.065 198.217 M260.238 201.803 C 260.075 202.461,259.578 203.389,259.134 203.864 C 258.688 204.342,258.412 205.058,258.517 205.464 C 258.672 206.062,258.716 206.031,258.754 205.300 C 258.779 204.805,258.989 204.400,259.220 204.400 C 259.725 204.400,260.906 201.718,260.689 201.066 C 260.604 200.813,260.402 201.145,260.238 201.803 M257.321 207.341 C 256.838 207.851,256.224 208.748,255.957 209.334 C 255.690 209.920,255.350 210.400,255.202 210.400 C 255.054 210.400,253.995 211.840,252.849 213.600 C 251.703 215.360,250.605 216.800,250.410 216.800 C 250.214 216.800,249.651 217.385,249.157 218.100 C 248.581 218.934,248.966 218.659,250.230 217.335 C 252.514 214.941,253.200 214.125,253.200 213.801 C 253.200 213.514,254.841 211.159,255.428 210.605 C 255.663 210.382,256.157 209.750,256.525 209.200 C 256.893 208.650,257.488 207.795,257.846 207.300 C 258.685 206.141,258.441 206.160,257.321 207.341 M243.835 223.209 C 242.754 224.294,241.277 225.377,240.554 225.615 C 239.830 225.854,239.138 226.364,239.016 226.748 C 238.894 227.133,238.301 227.655,237.697 227.909 C 236.692 228.331,236.684 228.351,237.600 228.142 C 238.150 228.017,238.870 227.593,239.200 227.201 C 239.530 226.808,240.414 226.177,241.165 225.799 C 242.451 225.152,244.346 223.470,245.558 221.900 C 246.486 220.698,245.876 221.161,243.835 223.209 M162.669 228.921 C 164.605 230.499,167.708 232.399,168.369 232.412 C 168.716 232.419,169.720 232.868,170.600 233.410 C 172.515 234.590,173.093 234.678,172.116 233.641 C 171.722 233.224,170.590 232.654,169.600 232.376 C 168.610 232.097,167.620 231.665,167.400 231.416 C 167.180 231.167,166.433 230.732,165.740 230.449 C 165.046 230.167,164.070 229.500,163.570 228.968 C 163.070 228.436,162.408 228.000,162.100 228.000 C 161.783 228.000,162.032 228.402,162.669 228.921 M233.283 230.857 C 232.559 231.320,232.054 231.787,232.160 231.894 C 232.355 232.089,234.800 230.495,234.800 230.173 C 234.800 229.906,234.692 229.955,233.283 230.857 M229.400 232.627 C 227.396 233.622,226.178 234.388,226.600 234.389 C 226.820 234.389,228.060 233.852,229.356 233.195 C 230.652 232.538,231.462 232.007,231.156 232.016 C 230.850 232.024,230.060 232.299,229.400 232.627 M174.400 235.056 C 175.170 235.446,175.925 235.949,176.078 236.171 C 176.231 236.394,176.457 236.476,176.581 236.353 C 176.960 235.973,175.467 234.877,174.200 234.604 C 173.025 234.351,173.029 234.360,174.400 235.056 M223.400 235.410 C 221.321 236.691,221.903 236.684,224.315 235.400 C 225.348 234.850,225.925 234.406,225.597 234.412 C 225.269 234.419,224.280 234.868,223.400 235.410 M178.200 236.623 C 180.167 237.108,182.233 237.767,182.600 238.026 C 182.820 238.181,183.630 238.411,184.400 238.538 L 185.800 238.769 184.400 238.280 C 183.630 238.012,182.602 237.567,182.116 237.291 C 181.630 237.015,180.370 236.707,179.316 236.607 C 178.262 236.507,177.760 236.514,178.200 236.623 M218.520 236.842 C 217.816 237.046,217.111 237.420,216.954 237.674 C 216.754 237.999,216.897 238.039,217.434 237.810 C 217.855 237.631,219.010 237.253,220.000 236.969 C 221.143 236.642,221.435 236.457,220.800 236.463 C 220.250 236.468,219.224 236.639,218.520 236.842 M214.200 238.400 C 213.181 238.838,214.232 238.838,215.600 238.400 C 216.404 238.143,216.443 238.077,215.800 238.068 C 215.360 238.062,214.640 238.211,214.200 238.400 M187.800 239.241 C 188.460 239.445,189.450 239.679,190.000 239.760 C 195.191 240.526,198.065 240.845,198.491 240.701 C 198.771 240.607,197.830 240.397,196.400 240.236 C 194.970 240.074,192.573 239.685,191.074 239.371 C 187.934 238.713,185.827 238.629,187.800 239.241 M208.400 239.400 C 207.190 239.693,204.760 240.064,203.000 240.224 C 201.240 240.385,200.034 240.598,200.320 240.698 C 200.606 240.798,202.586 240.672,204.720 240.417 C 209.068 239.899,213.779 238.868,211.800 238.868 C 211.140 238.868,209.610 239.108,208.400 239.400 M162.000 275.241 C 159.690 275.411,157.080 275.607,156.200 275.675 C 155.320 275.744,174.580 275.817,199.000 275.839 C 223.420 275.860,241.870 275.739,240.000 275.570 C 235.318 275.146,167.193 274.859,162.000 275.241 M149.780 276.333 C 149.204 276.837,146.561 277.490,143.000 278.009 C 141.240 278.265,139.530 278.708,139.200 278.993 C 138.870 279.278,137.970 279.642,137.200 279.801 C 136.430 279.961,134.720 280.607,133.400 281.237 C 132.080 281.868,130.415 282.500,129.700 282.642 C 128.985 282.784,128.400 283.033,128.400 283.196 C 128.400 283.358,127.545 283.808,126.500 284.195 C 125.455 284.581,124.399 285.147,124.154 285.452 C 123.758 285.943,122.052 286.958,118.765 288.659 C 118.195 288.953,117.402 289.555,117.003 289.997 C 116.603 290.439,116.068 290.800,115.813 290.800 C 115.559 290.800,115.002 291.116,114.575 291.503 C 114.149 291.890,112.810 292.974,111.600 293.911 C 110.390 294.849,108.860 296.112,108.200 296.717 C 107.540 297.322,106.325 298.330,105.500 298.956 C 104.675 299.583,104.000 300.271,104.000 300.487 C 104.000 300.703,103.505 301.367,102.900 301.964 C 102.295 302.561,101.260 303.732,100.600 304.566 C 99.940 305.401,98.815 306.762,98.100 307.590 C 97.385 308.419,96.800 309.218,96.800 309.365 C 96.800 309.513,96.612 309.851,96.383 310.117 C 95.437 311.213,93.254 314.931,93.028 315.831 C 92.894 316.364,92.612 316.800,92.401 316.800 C 92.189 316.800,91.632 317.565,91.162 318.500 C 90.691 319.435,90.081 320.470,89.804 320.800 C 89.528 321.130,89.084 322.331,88.818 323.470 C 88.552 324.608,88.105 325.628,87.824 325.735 C 87.543 325.843,87.196 326.518,87.053 327.235 C 86.909 327.953,86.364 329.453,85.842 330.570 C 85.319 331.686,84.662 333.950,84.382 335.600 C 84.102 337.250,83.713 338.808,83.518 339.063 C 83.030 339.700,82.465 343.029,82.023 347.860 C 81.819 350.094,81.448 352.678,81.199 353.603 C 79.659 359.322,81.516 367.206,85.371 371.315 C 86.550 372.572,87.724 373.600,87.980 373.600 C 88.236 373.600,89.268 374.059,90.273 374.620 C 91.277 375.181,92.392 375.562,92.750 375.466 C 93.203 375.345,93.140 375.279,92.543 375.246 C 92.071 375.221,91.593 374.958,91.479 374.662 C 91.366 374.366,90.422 373.886,89.381 373.595 C 88.168 373.255,87.421 372.801,87.297 372.328 C 87.191 371.923,86.692 371.488,86.187 371.361 C 85.682 371.234,85.171 370.738,85.050 370.257 C 84.930 369.777,84.454 368.980,83.993 368.485 C 83.528 367.985,82.998 366.656,82.802 365.493 C 82.162 361.715,81.911 360.824,81.352 360.360 C 80.606 359.741,80.654 358.521,81.441 358.081 C 82.083 357.722,82.269 356.166,83.034 344.738 C 83.228 341.834,83.383 341.245,83.997 341.085 C 84.621 340.922,84.772 340.287,85.020 336.795 C 85.266 333.327,85.421 332.667,86.031 332.508 C 86.567 332.368,86.822 331.762,87.022 330.160 C 87.229 328.508,87.451 328.000,87.966 328.000 C 88.629 328.000,89.600 324.719,89.600 322.476 C 89.600 321.880,89.845 321.600,90.365 321.600 C 90.947 321.600,91.195 321.213,91.403 319.984 C 91.578 318.945,92.002 318.155,92.591 317.769 C 93.094 317.439,93.613 316.636,93.743 315.985 C 93.881 315.293,94.234 314.800,94.590 314.800 C 94.927 314.800,95.200 314.453,95.200 314.024 C 95.200 313.597,95.380 313.136,95.600 313.000 C 95.820 312.864,96.000 312.326,96.000 311.804 C 96.000 311.125,96.256 310.819,96.900 310.728 C 97.486 310.645,97.846 310.278,97.931 309.678 C 98.006 309.145,98.469 308.602,99.031 308.388 C 99.584 308.178,100.000 307.696,100.000 307.264 C 100.000 306.848,100.537 305.899,101.194 305.154 C 101.850 304.409,102.390 303.485,102.394 303.100 C 102.397 302.695,102.703 302.400,103.120 302.400 C 104.032 302.400,104.800 301.644,104.800 300.748 C 104.800 300.335,105.163 300.004,105.700 299.928 C 106.278 299.846,106.646 299.478,106.728 298.900 C 106.811 298.318,107.131 298.000,107.636 298.000 C 108.085 298.000,108.615 297.566,108.882 296.979 C 109.208 296.263,109.865 295.819,111.074 295.496 C 112.306 295.166,112.800 294.826,112.800 294.307 C 112.800 293.819,113.195 293.501,114.000 293.340 C 114.816 293.177,115.200 292.862,115.200 292.358 C 115.200 291.908,115.578 291.520,116.156 291.375 C 116.682 291.243,117.482 290.710,117.934 290.190 C 118.386 289.670,119.390 289.126,120.164 288.980 C 121.008 288.822,121.664 288.428,121.801 287.998 C 121.933 287.580,122.764 287.063,123.788 286.760 C 124.773 286.469,125.624 285.950,125.721 285.580 C 125.831 285.161,126.503 284.822,127.556 284.653 C 128.470 284.507,129.523 284.031,129.896 283.596 C 130.316 283.106,131.323 282.705,132.540 282.544 C 133.988 282.352,134.557 282.086,134.701 281.537 C 134.906 280.751,135.373 280.593,138.600 280.221 C 139.859 280.076,140.822 279.713,141.200 279.243 C 141.678 278.649,142.575 278.444,145.600 278.238 C 148.636 278.032,149.529 277.827,150.040 277.220 C 150.392 276.802,151.292 276.385,152.040 276.294 C 153.354 276.134,153.345 276.126,151.780 276.064 C 150.889 276.029,149.989 276.150,149.780 276.333 M248.384 276.293 C 248.926 276.395,249.556 276.707,249.784 276.988 C 250.340 277.669,253.540 278.411,255.677 278.354 C 256.625 278.328,257.130 278.255,256.800 278.190 C 256.470 278.126,254.893 277.847,253.295 277.571 C 251.697 277.295,250.190 276.829,249.946 276.535 C 249.702 276.241,249.029 276.025,248.451 276.054 L 247.400 276.109 248.384 276.293 M258.400 278.813 C 258.400 279.039,258.715 279.323,259.100 279.442 C 259.485 279.561,260.113 279.825,260.495 280.029 C 260.877 280.233,261.687 280.385,262.295 280.366 L 263.400 280.331 262.400 280.012 C 261.850 279.836,260.860 279.403,260.200 279.049 C 258.799 278.297,258.400 278.245,258.400 278.813 M265.110 281.386 C 265.755 281.928,267.017 282.489,267.916 282.633 C 268.815 282.777,269.653 283.162,269.779 283.489 C 269.904 283.816,270.262 283.985,270.574 283.865 C 270.886 283.746,271.357 283.907,271.620 284.224 C 271.883 284.541,272.430 284.800,272.835 284.800 C 273.240 284.800,273.753 285.138,273.974 285.551 C 274.195 285.964,274.875 286.398,275.485 286.514 L 276.595 286.726 275.478 285.766 C 274.864 285.238,273.888 284.687,273.308 284.541 C 272.728 284.396,271.631 283.854,270.871 283.338 C 270.111 282.822,269.163 282.400,268.765 282.400 C 268.368 282.400,267.196 281.950,266.162 281.400 C 263.810 280.150,263.639 280.148,265.110 281.386 M277.186 287.094 C 277.508 287.220,278.048 287.648,278.386 288.045 C 278.724 288.441,279.540 288.879,280.200 289.018 L 281.400 289.269 280.201 288.607 C 279.541 288.243,278.717 287.687,278.369 287.372 C 278.022 287.058,277.481 286.814,277.169 286.832 C 276.694 286.858,276.697 286.901,277.186 287.094 M282.188 290.100 C 282.575 290.705,283.171 291.200,283.513 291.200 C 283.854 291.200,284.058 291.155,283.967 291.100 C 283.875 291.045,283.279 290.550,282.642 290.000 L 281.485 289.000 282.188 290.100 M284.763 291.931 C 285.031 292.431,285.688 293.040,286.225 293.284 C 286.761 293.528,287.200 293.951,287.200 294.224 C 287.200 294.496,287.961 295.116,288.891 295.601 C 289.821 296.085,290.821 296.824,291.114 297.241 C 291.406 297.658,291.822 298.000,292.039 298.000 C 292.483 298.000,291.509 297.088,287.239 293.507 C 285.448 292.005,284.469 291.382,284.763 291.931 M293.200 299.167 C 293.200 299.572,294.756 300.582,294.995 300.332 C 295.065 300.260,294.689 299.877,294.161 299.481 C 293.632 299.086,293.200 298.945,293.200 299.167 M296.000 302.117 C 296.330 302.403,296.847 302.898,297.149 303.218 C 297.619 303.716,297.635 303.677,297.260 302.947 C 297.019 302.478,296.502 301.983,296.111 301.846 C 295.492 301.630,295.478 301.665,296.000 302.117 M297.943 304.600 C 298.161 305.040,298.713 305.713,299.170 306.096 C 299.626 306.479,300.000 307.043,300.000 307.350 C 300.000 307.657,300.450 308.203,301.000 308.563 C 301.550 308.924,302.000 309.453,302.000 309.739 C 302.000 310.026,302.450 310.683,303.000 311.200 C 303.550 311.717,304.000 311.934,304.000 311.684 C 304.000 311.433,303.640 311.035,303.200 310.800 C 302.760 310.565,302.400 310.178,302.400 309.941 C 302.400 309.492,301.136 307.824,298.873 305.288 C 298.143 304.469,297.724 304.160,297.943 304.600 M304.193 313.200 C 304.354 313.750,304.756 314.470,305.086 314.800 C 305.550 315.263,305.528 315.080,304.993 314.000 C 304.108 312.216,303.821 311.929,304.193 313.200 M306.402 316.644 C 306.401 316.888,306.850 317.751,307.400 318.562 C 307.950 319.372,308.400 320.256,308.400 320.525 C 308.400 320.794,308.850 321.677,309.400 322.486 C 309.950 323.295,310.414 324.282,310.432 324.679 C 310.451 325.124,310.542 325.203,310.670 324.885 C 310.895 324.324,309.817 321.781,309.189 321.393 C 308.975 321.261,308.799 320.848,308.798 320.476 C 308.797 320.104,308.258 318.990,307.600 318.000 C 306.942 317.010,306.403 316.400,306.402 316.644 M310.820 326.000 C 310.811 326.330,311.248 327.320,311.790 328.200 C 312.332 329.080,312.773 329.620,312.769 329.400 C 312.760 328.718,310.837 325.364,310.820 326.000 M312.834 330.486 C 312.815 330.864,313.052 331.764,313.360 332.486 C 313.667 333.209,314.107 334.250,314.337 334.800 C 314.709 335.690,314.730 335.646,314.521 334.400 C 314.393 333.630,314.120 332.787,313.916 332.526 C 313.712 332.265,313.392 331.545,313.207 330.926 C 313.021 330.307,312.853 330.109,312.834 330.486 M314.901 337.400 C 314.905 338.280,314.987 338.593,315.083 338.095 C 315.179 337.598,315.175 336.878,315.075 336.495 C 314.975 336.113,314.896 336.520,314.901 337.400 M315.255 340.200 C 315.240 340.860,315.503 341.850,315.839 342.400 L 316.450 343.400 316.195 342.400 C 316.054 341.850,315.791 340.860,315.611 340.200 L 315.282 339.000 315.255 340.200 M316.909 346.400 C 316.909 347.390,316.987 347.795,317.082 347.300 C 317.178 346.805,317.178 345.995,317.082 345.500 C 316.987 345.005,316.909 345.410,316.909 346.400 M317.450 354.800 C 317.714 359.257,317.714 359.834,317.456 362.200 L 317.237 364.200 317.664 362.400 C 318.178 360.227,318.173 357.931,317.645 354.200 L 317.248 351.400 317.450 354.800 M316.832 365.574 C 316.814 365.890,316.464 366.520,316.052 366.974 C 315.641 367.428,315.185 368.340,315.038 369.000 C 314.830 369.938,315.042 369.736,316.010 368.072 C 316.691 366.902,317.161 365.732,317.056 365.472 C 316.932 365.170,316.852 365.207,316.832 365.574 M312.094 372.412 C 311.375 373.065,310.936 373.600,311.117 373.600 C 311.530 373.600,312.475 372.817,313.169 371.900 C 313.933 370.889,313.585 371.055,312.094 372.412 M308.976 374.040 C 308.826 374.281,308.141 374.724,307.452 375.024 C 306.763 375.324,306.491 375.576,306.846 375.584 C 307.201 375.593,307.921 375.267,308.446 374.860 C 308.971 374.453,309.670 374.017,310.000 373.891 C 310.490 373.705,310.476 373.657,309.924 373.632 C 309.552 373.614,309.125 373.798,308.976 374.040 M96.000 376.060 C 98.931 376.407,300.492 376.417,302.800 376.070 C 303.790 375.922,257.170 375.800,199.200 375.800 C 141.230 375.800,94.790 375.917,96.000 376.060 " stroke="none" fill="#551885" fill-rule="evenodd"></path><path id="path4" d="M197.380 104.508 C 196.731 104.703,194.310 105.016,192.000 105.204 C 187.408 105.578,184.148 106.180,183.415 106.787 C 183.157 107.002,181.968 107.390,180.773 107.649 C 179.578 107.909,178.843 108.205,179.139 108.307 C 180.007 108.606,184.334 107.549,184.550 106.985 C 184.741 106.488,186.961 106.146,192.028 105.835 C 193.253 105.760,195.545 105.468,197.120 105.187 C 199.565 104.750,200.555 104.769,203.892 105.317 C 206.041 105.670,209.240 106.044,211.000 106.147 L 214.200 106.336 211.400 105.793 C 209.860 105.494,207.757 105.238,206.726 105.225 C 205.695 105.211,204.382 105.021,203.807 104.803 C 202.346 104.247,198.790 104.084,197.380 104.508 M216.531 107.401 C 217.593 107.976,218.763 108.384,219.131 108.307 C 219.719 108.184,218.604 107.680,215.400 106.620 C 214.960 106.474,215.469 106.826,216.531 107.401 M176.074 108.910 C 175.841 109.191,174.964 109.662,174.125 109.956 C 171.723 110.799,164.092 114.657,162.810 115.677 C 160.156 117.789,158.093 119.200,157.662 119.200 C 156.830 119.200,145.444 131.008,143.400 133.991 C 141.305 137.047,139.374 140.182,138.958 141.200 C 138.824 141.530,138.331 142.610,137.864 143.600 C 137.396 144.590,136.946 145.549,136.863 145.731 C 136.781 145.912,137.084 145.830,137.537 145.547 C 138.027 145.240,138.547 144.256,138.821 143.113 C 139.074 142.058,139.505 141.061,139.779 140.897 C 140.052 140.734,140.592 139.761,140.979 138.736 C 141.398 137.624,141.987 136.792,142.441 136.673 C 142.876 136.560,143.200 136.124,143.200 135.652 C 143.200 135.199,143.553 134.639,143.984 134.409 C 144.415 134.178,145.125 133.182,145.561 132.195 C 145.998 131.208,146.549 130.400,146.786 130.400 C 147.023 130.400,147.421 129.953,147.669 129.408 C 147.918 128.862,148.427 128.318,148.800 128.200 C 149.173 128.082,149.682 127.538,149.931 126.992 C 150.179 126.447,150.661 126.000,151.000 126.000 C 151.339 126.000,151.821 125.553,152.069 125.008 C 152.318 124.462,152.827 123.918,153.200 123.800 C 153.573 123.682,154.082 123.138,154.331 122.592 C 154.579 122.047,155.012 121.593,155.291 121.584 C 155.571 121.575,156.423 121.035,157.185 120.384 C 157.947 119.733,158.775 119.200,159.026 119.200 C 159.276 119.200,160.093 118.659,160.841 117.998 C 161.588 117.337,162.526 116.516,162.925 116.173 C 163.324 115.831,164.429 115.216,165.381 114.808 C 166.333 114.400,167.229 113.876,167.373 113.644 C 167.516 113.412,168.391 113.021,169.317 112.775 C 170.243 112.529,171.360 112.004,171.800 111.607 C 172.240 111.211,173.230 110.758,174.000 110.600 C 174.770 110.442,175.760 109.991,176.200 109.597 C 176.640 109.202,177.360 108.793,177.800 108.686 C 178.431 108.534,178.378 108.483,177.549 108.446 C 176.971 108.421,176.307 108.630,176.074 108.910 M222.536 108.967 C 223.161 109.244,223.815 109.701,223.990 109.984 C 224.165 110.266,224.540 110.420,224.825 110.325 C 225.430 110.123,222.790 108.383,221.953 108.432 C 221.649 108.450,221.911 108.691,222.536 108.967 M226.489 110.797 C 227.088 110.977,228.058 111.502,228.643 111.963 C 229.229 112.423,229.999 112.798,230.354 112.796 C 230.709 112.794,230.061 112.254,228.914 111.596 C 227.767 110.938,226.507 110.415,226.114 110.434 C 225.679 110.455,225.825 110.597,226.489 110.797 M232.727 113.800 C 234.014 114.883,234.400 115.021,234.400 114.400 C 234.400 114.180,234.152 114.000,233.849 114.000 C 233.546 114.000,233.074 113.730,232.800 113.400 C 232.526 113.070,232.130 112.800,231.920 112.800 C 231.710 112.800,232.073 113.250,232.727 113.800 M235.653 115.373 C 236.231 115.705,236.811 116.251,236.940 116.588 C 237.069 116.925,237.442 117.200,237.769 117.200 C 238.617 117.200,236.687 115.332,235.513 115.016 C 234.710 114.801,234.727 114.844,235.653 115.373 M239.258 118.100 C 239.517 118.705,240.006 119.200,240.344 119.200 C 240.870 119.200,240.878 119.127,240.398 118.700 C 240.089 118.425,239.600 117.930,239.312 117.600 C 238.875 117.101,238.866 117.185,239.258 118.100 M242.600 120.553 C 243.480 121.333,244.413 121.977,244.673 121.985 C 244.933 121.993,245.264 122.370,245.407 122.823 C 245.551 123.276,246.103 123.811,246.634 124.013 C 247.165 124.215,247.600 124.659,247.600 124.999 C 247.600 125.339,248.030 125.813,248.556 126.053 C 249.082 126.292,249.708 126.918,249.947 127.444 C 250.187 127.970,250.654 128.400,250.986 128.400 C 251.318 128.400,251.852 129.030,252.174 129.800 C 252.496 130.570,252.918 131.200,253.112 131.200 C 253.306 131.200,253.706 131.650,254.000 132.199 C 254.771 133.640,254.923 133.170,254.172 131.665 C 253.825 130.969,253.370 130.400,253.161 130.400 C 252.951 130.400,252.602 129.933,252.385 129.361 C 252.168 128.790,251.654 128.235,251.244 128.127 C 250.833 128.020,250.307 127.513,250.073 127.001 C 249.840 126.489,249.297 125.958,248.868 125.821 C 248.438 125.685,247.990 125.206,247.873 124.757 C 247.755 124.308,247.308 123.849,246.878 123.736 C 246.449 123.624,245.899 123.097,245.657 122.566 C 245.415 122.035,244.953 121.600,244.631 121.600 C 244.309 121.600,243.810 121.269,243.523 120.863 C 243.235 120.458,242.550 119.904,242.000 119.632 C 241.316 119.293,241.506 119.585,242.600 120.553 M254.800 133.991 C 254.800 134.216,254.967 134.400,255.171 134.400 C 255.376 134.400,255.826 134.683,256.171 135.029 C 256.517 135.374,256.800 135.485,256.800 135.275 C 256.800 135.064,256.350 134.597,255.800 134.237 C 255.250 133.876,254.800 133.766,254.800 133.991 M258.432 137.840 C 258.362 138.810,259.329 140.841,260.042 141.223 C 260.471 141.452,260.824 142.099,260.854 142.714 C 260.905 143.719,260.922 143.729,261.088 142.857 C 261.207 142.231,260.936 141.558,260.283 140.857 C 259.742 140.276,259.112 139.260,258.881 138.600 C 258.651 137.940,258.449 137.598,258.432 137.840 M261.200 144.716 C 261.200 144.967,261.547 145.358,261.972 145.585 C 262.397 145.812,262.822 146.404,262.918 146.899 C 263.077 147.729,263.095 147.734,263.146 146.970 C 263.175 146.513,262.750 145.717,262.200 145.200 C 261.650 144.683,261.200 144.466,261.200 144.716 M135.468 148.793 C 134.880 150.109,134.418 151.684,134.440 152.293 C 134.474 153.218,134.541 153.141,134.851 151.820 C 135.054 150.951,135.484 149.949,135.806 149.594 C 136.364 148.977,137.100 146.400,136.718 146.400 C 136.617 146.400,136.055 147.477,135.468 148.793 M263.254 148.807 C 263.225 149.361,263.635 150.454,264.167 151.237 C 264.698 152.019,265.211 153.186,265.307 153.830 L 265.480 155.000 265.540 153.724 C 265.573 153.022,265.420 152.336,265.200 152.200 C 264.980 152.064,264.800 151.533,264.800 151.019 C 264.800 150.506,264.544 149.987,264.231 149.867 C 263.918 149.747,263.583 149.233,263.485 148.724 C 263.315 147.831,263.307 147.834,263.254 148.807 M133.600 155.601 C 133.336 156.702,132.958 157.703,132.760 157.825 C 132.562 157.947,132.427 158.712,132.460 159.524 C 132.514 160.857,132.537 160.886,132.694 159.819 C 132.790 159.169,133.115 158.449,133.416 158.219 C 133.937 157.821,134.736 153.600,134.291 153.600 C 134.175 153.600,133.864 154.501,133.600 155.601 M265.600 158.367 C 265.600 158.605,265.751 158.800,265.936 158.800 C 266.247 158.800,266.959 160.722,267.343 162.600 C 267.441 163.076,267.514 162.913,267.523 162.200 C 267.543 160.694,266.698 158.299,266.072 158.091 C 265.813 158.004,265.600 158.128,265.600 158.367 M131.617 166.700 C 131.197 171.134,131.536 182.469,132.105 183.038 C 132.169 183.102,132.229 178.305,132.239 172.378 C 132.248 166.450,132.221 161.600,132.178 161.600 C 132.135 161.600,131.883 163.895,131.617 166.700 M267.744 172.800 C 267.744 174.890,267.812 175.745,267.894 174.700 C 267.976 173.655,267.976 171.945,267.894 170.900 C 267.812 169.855,267.744 170.710,267.744 172.800 M267.267 184.500 C 267.227 185.395,266.877 186.323,266.400 186.800 C 265.544 187.656,265.353 188.400,265.990 188.400 C 266.722 188.400,267.648 185.977,267.490 184.476 L 267.334 183.000 267.267 184.500 M132.410 186.740 C 132.405 187.036,132.653 187.846,132.962 188.540 C 133.272 189.233,133.667 190.340,133.840 191.000 C 134.155 192.198,134.156 192.198,134.298 191.167 C 134.377 190.594,133.990 189.257,133.430 188.167 C 132.875 187.085,132.416 186.443,132.410 186.740 M265.301 191.800 C 265.305 192.680,265.387 192.993,265.483 192.495 C 265.579 191.998,265.575 191.278,265.475 190.895 C 265.375 190.513,265.296 190.920,265.301 191.800 M134.464 193.489 C 134.402 194.739,136.303 199.431,136.707 199.026 C 136.962 198.772,136.030 196.393,135.365 195.600 C 135.089 195.270,134.787 194.370,134.695 193.600 L 134.528 192.200 134.464 193.489 M264.846 194.204 C 264.821 194.646,264.440 195.232,264.000 195.507 C 263.486 195.828,263.219 196.398,263.254 197.103 C 263.308 198.179,263.312 198.181,263.485 197.200 C 263.582 196.650,264.026 195.915,264.473 195.566 C 264.970 195.178,265.208 194.636,265.089 194.166 C 264.903 193.441,264.890 193.443,264.846 194.204 M262.800 199.487 C 262.800 199.718,262.440 200.001,262.000 200.116 C 261.134 200.342,260.879 201.602,261.700 201.597 C 262.226 201.594,263.333 199.599,262.996 199.262 C 262.888 199.155,262.800 199.256,262.800 199.487 M136.800 199.723 C 136.800 200.422,138.539 203.362,138.690 202.919 C 138.780 202.654,138.392 201.757,137.827 200.926 C 137.262 200.094,136.800 199.553,136.800 199.723 M260.846 203.097 C 260.821 203.590,260.440 204.218,260.000 204.493 C 259.061 205.079,258.938 206.000,259.800 206.000 C 260.130 206.000,260.400 205.676,260.400 205.280 C 260.400 204.884,260.597 204.363,260.838 204.122 C 261.078 203.882,261.189 203.351,261.084 202.942 C 260.926 202.329,260.885 202.356,260.846 203.097 M138.802 204.020 C 138.799 204.849,140.953 208.140,141.137 207.588 C 141.217 207.349,141.006 206.849,140.669 206.476 C 140.331 206.103,139.774 205.259,139.430 204.599 C 139.086 203.940,138.804 203.679,138.802 204.020 M142.000 208.954 C 142.000 209.333,143.754 212.201,144.676 213.331 C 145.184 213.953,145.600 214.280,145.600 214.059 C 145.600 213.838,145.338 213.395,145.018 213.075 C 144.697 212.755,144.049 211.751,143.576 210.844 C 142.811 209.377,142.000 208.404,142.000 208.954 M255.541 211.495 C 255.179 211.576,254.796 211.970,254.692 212.371 C 254.459 213.259,255.936 213.033,256.283 212.127 C 256.548 211.437,256.392 211.304,255.541 211.495 M148.200 217.405 C 148.640 217.745,149.320 218.423,149.711 218.912 L 150.422 219.800 149.967 218.744 C 149.717 218.163,149.037 217.485,148.456 217.238 C 147.456 216.811,147.442 216.820,148.200 217.405 M152.600 221.805 C 153.040 222.145,153.720 222.823,154.111 223.312 L 154.822 224.200 154.367 223.144 C 154.117 222.563,153.437 221.885,152.856 221.638 C 151.856 221.211,151.842 221.220,152.600 221.805 M155.881 224.990 C 156.277 225.534,156.960 226.100,157.400 226.247 C 157.840 226.394,158.419 226.827,158.688 227.208 C 158.956 227.589,159.567 228.003,160.046 228.128 C 160.737 228.309,160.636 228.115,159.558 227.194 C 158.811 226.555,157.979 226.025,157.709 226.016 C 157.439 226.007,156.924 225.550,156.563 225.000 C 156.203 224.450,155.740 224.000,155.535 224.000 C 155.330 224.000,155.486 224.445,155.881 224.990 M240.800 227.000 C 240.800 227.330,240.541 227.600,240.224 227.600 C 239.907 227.600,239.552 227.754,239.436 227.942 C 239.319 228.130,239.669 228.199,240.212 228.096 C 241.040 227.937,241.755 226.400,241.000 226.400 C 240.890 226.400,240.800 226.670,240.800 227.000 M162.354 229.606 C 163.099 230.263,163.880 230.800,164.090 230.800 C 164.300 230.800,164.771 231.152,165.136 231.583 C 165.501 232.014,166.340 232.465,167.000 232.587 C 168.175 232.803,168.173 232.797,166.864 232.289 C 166.129 232.005,165.355 231.463,165.144 231.086 C 164.933 230.709,164.531 230.400,164.250 230.400 C 163.969 230.400,163.317 229.950,162.800 229.400 C 162.283 228.850,161.667 228.403,161.430 228.406 C 161.194 228.410,161.609 228.950,162.354 229.606 M237.098 229.421 L 236.903 230.443 237.851 229.552 C 238.996 228.477,239.009 228.400,238.047 228.400 C 237.556 228.400,237.225 228.757,237.098 229.421 M234.926 231.100 C 234.789 231.485,234.587 231.963,234.477 232.162 C 234.366 232.361,234.484 232.395,234.738 232.238 C 234.992 232.081,235.200 231.708,235.200 231.410 C 235.200 231.111,235.425 230.776,235.700 230.665 C 236.092 230.507,236.089 230.456,235.687 230.432 C 235.406 230.414,235.063 230.715,234.926 231.100 M169.722 233.813 C 170.340 234.356,171.150 234.785,171.522 234.767 C 171.909 234.749,171.642 234.491,170.900 234.166 C 170.185 233.854,169.600 233.418,169.600 233.199 C 169.600 232.979,169.375 232.806,169.100 232.813 C 168.825 232.820,169.105 233.270,169.722 233.813 M173.646 235.511 C 175.349 236.779,176.647 237.269,177.835 237.093 C 178.951 236.927,178.942 236.917,177.638 236.860 C 176.878 236.827,175.696 236.358,174.964 235.800 C 174.243 235.250,173.437 234.800,173.173 234.800 C 172.908 234.800,173.121 235.120,173.646 235.511 M225.722 235.577 C 225.610 236.005,225.085 236.432,224.554 236.526 C 223.688 236.680,223.698 236.692,224.652 236.649 C 225.544 236.608,227.009 234.800,226.150 234.800 C 226.026 234.800,225.834 235.150,225.722 235.577 M180.213 238.014 C 180.618 238.462,181.180 238.740,181.462 238.632 C 181.744 238.523,182.081 238.607,182.211 238.817 C 182.341 239.028,182.932 239.175,183.524 239.146 C 184.535 239.094,184.543 239.080,183.651 238.911 C 183.129 238.812,182.089 238.387,181.339 237.966 C 179.593 236.985,179.293 236.998,180.213 238.014 M217.200 238.679 L 215.000 239.188 217.193 238.968 C 219.245 238.762,219.961 238.556,219.567 238.285 C 219.475 238.222,218.410 238.400,217.200 238.679 M187.000 239.740 C 187.440 240.089,188.085 240.380,188.433 240.387 C 188.782 240.394,189.183 240.517,189.326 240.659 C 189.469 240.802,190.531 240.994,191.687 241.087 C 192.843 241.180,193.695 241.162,193.580 241.047 C 193.465 240.932,192.528 240.766,191.496 240.677 C 190.465 240.588,189.391 240.324,189.109 240.090 C 188.826 239.856,188.057 239.538,187.398 239.385 C 186.249 239.116,186.233 239.131,187.000 239.740 M210.893 240.000 C 210.508 240.616,209.911 240.817,208.297 240.872 L 206.200 240.944 208.101 241.094 C 209.602 241.212,210.360 241.029,211.701 240.226 C 213.210 239.321,213.288 239.207,212.396 239.204 C 211.823 239.202,211.178 239.543,210.893 240.000 M197.907 241.490 C 198.626 241.579,199.706 241.577,200.307 241.486 C 200.908 241.395,200.320 241.322,199.000 241.324 C 197.680 241.326,197.188 241.401,197.907 241.490 M162.000 274.468 C 153.592 275.348,152.782 275.565,158.657 275.363 C 161.768 275.256,164.828 275.038,165.457 274.878 C 167.570 274.340,233.427 274.607,237.200 275.169 C 239.070 275.448,241.500 275.610,242.600 275.531 L 244.600 275.386 242.400 275.122 C 233.725 274.080,230.286 273.996,198.800 274.052 C 180.430 274.085,163.870 274.272,162.000 274.468 M147.800 276.154 C 147.140 276.449,144.980 276.996,143.000 277.370 C 139.628 278.008,138.480 278.363,136.000 279.539 C 135.096 279.967,135.153 279.990,136.600 279.773 C 137.480 279.640,138.487 279.275,138.838 278.960 C 139.189 278.645,140.989 278.191,142.838 277.949 C 144.687 277.708,146.856 277.242,147.658 276.913 C 148.461 276.585,149.721 276.173,150.458 275.999 L 151.800 275.682 150.400 275.650 C 149.630 275.633,148.460 275.859,147.800 276.154 M251.944 276.771 C 252.903 277.227,254.163 277.584,254.744 277.564 C 255.565 277.536,255.399 277.409,254.000 276.992 C 250.626 275.987,250.199 275.941,251.944 276.771 M256.500 277.876 C 256.885 277.976,257.515 277.976,257.900 277.876 C 258.285 277.775,257.970 277.693,257.200 277.693 C 256.430 277.693,256.115 277.775,256.500 277.876 M260.000 278.589 C 261.645 279.538,262.898 280.035,263.111 279.822 C 263.221 279.712,262.853 279.448,262.294 279.236 C 261.735 279.023,261.160 278.658,261.015 278.425 C 260.871 278.191,260.358 278.003,259.876 278.006 C 259.031 278.012,259.035 278.032,260.000 278.589 M132.800 280.600 C 132.526 280.930,131.975 281.200,131.575 281.200 C 131.175 281.200,130.736 281.380,130.600 281.600 C 130.464 281.820,129.924 282.000,129.400 282.000 C 128.876 282.000,128.343 282.168,128.216 282.374 C 128.089 282.580,126.960 283.255,125.708 283.874 C 122.441 285.489,122.000 285.753,122.000 286.095 C 122.000 286.263,121.775 286.401,121.500 286.402 C 120.781 286.406,113.368 291.332,111.219 293.235 C 108.090 296.006,107.833 296.219,106.493 297.153 C 105.774 297.654,103.888 299.625,102.302 301.532 C 100.716 303.440,98.999 305.450,98.487 306.000 C 97.974 306.550,97.256 307.495,96.891 308.100 C 96.526 308.705,96.086 309.200,95.914 309.200 C 95.741 309.200,95.600 309.399,95.600 309.642 C 95.600 309.885,95.060 310.884,94.400 311.862 C 93.740 312.840,93.200 313.737,93.200 313.855 C 93.200 313.973,92.689 314.819,92.065 315.735 C 89.733 319.155,88.909 320.648,88.390 322.400 C 88.096 323.390,87.669 324.446,87.440 324.746 C 87.043 325.269,86.215 327.303,85.709 329.000 C 85.578 329.440,85.322 329.899,85.141 330.020 C 84.960 330.141,84.704 330.861,84.572 331.620 C 84.391 332.662,84.437 332.853,84.760 332.400 C 84.995 332.070,85.191 331.504,85.194 331.143 C 85.197 330.781,85.452 330.389,85.760 330.271 C 86.068 330.152,86.441 329.341,86.589 328.467 C 86.736 327.593,87.294 326.285,87.829 325.561 C 88.363 324.837,88.800 323.775,88.800 323.201 C 88.800 322.626,89.340 321.305,90.000 320.264 C 90.660 319.224,91.200 318.230,91.200 318.056 C 91.200 317.882,91.641 317.325,92.179 316.819 C 92.718 316.314,93.268 315.401,93.402 314.791 C 93.536 314.182,93.995 313.366,94.423 312.979 C 94.850 312.593,95.200 312.060,95.200 311.796 C 95.200 311.531,95.830 310.490,96.600 309.482 C 97.370 308.473,98.000 307.521,98.000 307.366 C 98.000 307.083,98.848 306.130,100.900 304.107 C 101.505 303.510,102.000 302.787,102.000 302.501 C 102.000 302.215,102.450 301.809,103.000 301.600 C 103.550 301.391,104.000 300.989,104.000 300.706 C 104.000 300.424,104.741 299.565,105.646 298.797 C 106.551 298.028,107.761 296.905,108.335 296.300 C 108.909 295.695,109.544 295.200,109.747 295.200 C 109.950 295.200,110.495 294.834,110.958 294.388 C 112.508 292.892,114.588 291.317,115.900 290.645 C 116.615 290.279,117.200 289.800,117.200 289.580 C 117.200 289.360,117.617 289.022,118.126 288.828 C 118.636 288.634,119.741 288.009,120.582 287.438 C 121.423 286.867,122.434 286.400,122.829 286.400 C 123.223 286.400,123.653 286.062,123.785 285.649 C 123.932 285.186,124.701 284.708,125.791 284.402 C 126.764 284.130,127.855 283.581,128.216 283.183 C 128.576 282.784,129.596 282.336,130.481 282.186 C 132.347 281.871,135.448 280.000,134.105 280.000 C 133.661 280.000,133.074 280.270,132.800 280.600 M264.833 280.128 C 265.469 280.615,268.000 281.936,268.000 281.781 C 268.000 281.513,265.482 280.003,265.033 280.001 C 264.832 280.001,264.742 280.057,264.833 280.128 M271.713 283.232 C 272.158 283.946,273.495 284.659,273.782 284.337 C 273.849 284.261,273.302 283.807,272.566 283.328 C 271.331 282.522,271.265 282.515,271.713 283.232 M274.800 284.655 C 275.130 284.788,275.737 285.280,276.149 285.748 L 276.898 286.600 276.301 285.600 C 275.973 285.050,275.366 284.558,274.952 284.507 C 274.429 284.442,274.383 284.488,274.800 284.655 M278.200 286.933 C 278.640 287.286,279.166 287.580,279.369 287.587 C 279.571 287.594,280.067 287.899,280.471 288.264 C 280.875 288.630,281.283 288.850,281.378 288.755 C 281.596 288.537,279.270 286.937,278.200 286.568 L 277.400 286.292 278.200 286.933 M285.800 291.864 C 286.460 292.505,287.540 293.360,288.200 293.765 C 289.209 294.384,289.148 294.266,287.816 293.020 C 285.875 291.204,284.030 290.147,285.800 291.864 M293.515 298.388 C 294.088 299.042,294.625 299.508,294.708 299.425 C 294.908 299.225,293.139 297.200,292.764 297.200 C 292.603 297.200,292.941 297.735,293.515 298.388 M300.000 305.929 C 300.000 306.106,300.563 306.779,301.252 307.425 C 302.126 308.246,302.376 308.359,302.082 307.800 C 301.599 306.883,300.000 305.447,300.000 305.929 M302.419 309.000 C 302.409 309.594,303.123 310.610,303.374 310.359 C 303.494 310.240,303.329 309.795,303.009 309.371 C 302.688 308.947,302.422 308.780,302.419 309.000 M305.100 313.065 C 305.375 313.176,305.600 313.500,305.600 313.784 C 305.600 314.069,305.865 314.522,306.189 314.791 C 306.689 315.206,306.684 315.091,306.160 314.040 C 305.820 313.358,305.330 312.814,305.071 312.832 C 304.741 312.854,304.750 312.923,305.100 313.065 M306.800 316.184 C 306.800 316.363,307.250 316.925,307.800 317.435 C 308.350 317.945,308.800 318.222,308.800 318.051 C 308.800 317.879,308.350 317.317,307.800 316.800 C 307.250 316.283,306.800 316.006,306.800 316.184 M308.994 319.782 C 309.138 320.432,309.604 321.207,310.028 321.505 C 310.453 321.802,310.821 322.440,310.846 322.923 C 310.885 323.643,310.926 323.670,311.081 323.070 C 311.185 322.669,310.997 322.038,310.663 321.669 C 310.329 321.300,309.757 320.459,309.393 319.799 L 308.731 318.600 308.994 319.782 M311.200 325.613 C 311.200 325.826,311.450 326.000,311.757 326.000 C 312.063 326.000,312.432 326.471,312.576 327.047 C 312.721 327.623,312.925 328.008,313.031 327.903 C 313.380 327.554,312.473 325.714,311.831 325.467 C 311.484 325.334,311.200 325.399,311.200 325.613 M313.233 329.600 C 313.204 330.180,314.615 332.800,314.957 332.800 C 315.295 332.800,314.684 330.988,314.214 330.600 C 313.948 330.380,313.625 329.930,313.496 329.600 C 313.289 329.067,313.260 329.067,313.233 329.600 M83.861 333.900 C 83.754 334.285,83.552 335.451,83.411 336.491 C 83.269 337.531,82.984 338.486,82.777 338.614 C 82.570 338.742,82.415 339.422,82.434 340.124 L 82.469 341.400 82.807 340.274 C 82.992 339.655,83.337 338.917,83.572 338.633 C 84.030 338.082,84.669 333.200,84.284 333.200 C 84.157 333.200,83.967 333.515,83.861 333.900 M315.293 334.400 C 315.293 335.170,315.375 335.485,315.476 335.100 C 315.576 334.715,315.576 334.085,315.476 333.700 C 315.375 333.315,315.293 333.630,315.293 334.400 M315.609 339.100 C 315.614 339.265,315.970 339.850,316.400 340.400 C 316.830 340.950,317.211 341.940,317.246 342.600 C 317.301 343.642,317.333 343.674,317.490 342.840 C 317.590 342.312,317.492 341.502,317.272 341.040 C 317.052 340.578,316.772 339.885,316.649 339.500 C 316.432 338.820,315.591 338.497,315.609 339.100 M81.805 343.100 C 81.650 343.485,81.374 345.330,81.192 347.200 C 81.009 349.070,80.644 351.860,80.382 353.400 C 79.647 357.711,80.080 363.337,81.337 365.800 C 82.683 368.437,82.709 366.988,81.369 364.003 C 80.173 361.338,80.149 357.514,81.291 351.800 C 82.322 346.649,82.656 340.978,81.805 343.100 M317.664 350.800 C 317.631 352.614,317.856 353.926,318.407 355.141 C 318.842 356.098,319.118 357.009,319.021 357.166 C 318.924 357.323,319.001 358.339,319.192 359.425 C 319.481 361.074,319.510 360.851,319.369 358.073 C 319.275 356.243,318.988 354.353,318.731 353.873 C 318.473 353.393,318.138 351.920,317.986 350.600 L 317.709 348.200 317.664 350.800 M319.200 362.000 C 319.200 362.220,318.949 362.400,318.643 362.400 C 318.005 362.400,317.588 363.272,317.625 364.533 C 317.650 365.385,317.657 365.384,318.022 364.475 C 318.226 363.966,318.664 363.279,318.996 362.947 C 319.580 362.362,319.809 361.600,319.400 361.600 C 319.290 361.600,319.200 361.780,319.200 362.000 M82.432 368.403 C 82.386 369.267,86.751 374.009,87.540 373.954 C 88.131 373.912,88.129 373.888,87.519 373.728 C 87.144 373.629,86.730 373.209,86.598 372.795 C 86.467 372.380,86.008 371.930,85.580 371.794 C 85.151 371.657,84.800 371.370,84.800 371.155 C 84.800 370.940,84.368 370.332,83.841 369.805 C 83.313 369.277,82.788 368.610,82.672 368.323 C 82.519 367.940,82.455 367.961,82.432 368.403 M88.775 374.754 C 88.997 375.169,89.655 375.627,90.237 375.773 C 91.741 376.151,91.877 375.775,90.420 375.267 C 89.749 375.033,89.200 374.652,89.200 374.421 C 89.200 374.189,89.014 374.000,88.786 374.000 C 88.504 374.000,88.501 374.241,88.775 374.754 M310.056 374.813 C 309.356 375.396,309.274 375.600,309.742 375.600 C 310.088 375.600,310.565 375.240,310.800 374.800 C 311.326 373.818,311.249 373.819,310.056 374.813 M94.400 376.271 C 94.950 376.360,95.760 376.589,96.200 376.780 C 96.640 376.971,97.343 377.239,97.763 377.375 C 99.520 377.946,301.717 377.616,302.594 377.040 C 303.056 376.738,303.786 376.401,304.217 376.292 C 304.981 376.098,304.981 376.092,304.200 376.049 C 303.760 376.025,302.884 376.274,302.254 376.602 C 300.548 377.492,101.885 377.498,98.200 376.608 C 96.880 376.289,95.260 376.047,94.600 376.069 C 93.548 376.104,93.524 376.129,94.400 376.271 M0.000 488.199 C 0.000 488.733,22.302 488.800,200.000 488.800 C 331.366 488.800,400.000 488.664,400.000 488.405 C 400.000 487.993,355.478 487.878,123.300 487.695 C 13.808 487.608,0.000 487.665,0.000 488.199 " stroke="none" fill="#7b19be" fill-rule="evenodd"></path></g></svg>